<svg width="364" height="234" viewBox="0 0 364 234" fill="none" xmlns="http://www.w3.org/2000/svg">
<g filter="url(#filter0_b_2502_730)">
<rect x="2" y="2" width="360" height="230" rx="15.1928" fill="url(#paint0_linear_2502_730)"/>
<rect x="1.36697" y="1.36697" width="361.266" height="231.266" rx="15.8259" stroke="url(#paint1_radial_2502_730)" stroke-width="1.26607"/>
<rect x="1.36697" y="1.36697" width="361.266" height="231.266" rx="15.8259" stroke="url(#paint2_linear_2502_730)" stroke-opacity="0.2" stroke-width="1.26607"/>
<rect x="1.36697" y="1.36697" width="361.266" height="231.266" rx="15.8259" stroke="url(#paint3_linear_2502_730)" stroke-width="1.26607"/>
</g>
<mask id="mask0_2502_730" style="mask-type:alpha" maskUnits="userSpaceOnUse" x="2" y="2" width="360" height="230">
<rect x="2" y="2" width="360" height="230" rx="15.4011" fill="#16084C"/>
</mask>
<g mask="url(#mask0_2502_730)">
<g filter="url(#filter1_f_2502_730)">
<path d="M517.572 11.5783C540.143 58.1596 470.956 139.129 363.04 192.429C255.125 245.729 149.345 251.176 126.775 204.595C104.205 158.013 173.391 77.0434 281.307 23.7435C389.223 -29.5565 495.002 -35.003 517.572 11.5783Z" fill="#005ECE"/>
</g>
<g filter="url(#filter2_f_2502_730)">
<path d="M365.638 -60.8568C387.202 -16.3508 308.964 67.0046 190.888 125.323C72.8117 183.641 -40.3894 194.838 -61.9539 150.332C-83.5185 105.826 -5.28039 22.4706 112.796 -35.8476C230.872 -94.1657 344.073 -105.363 365.638 -60.8568Z" fill="#2488FF"/>
</g>
</g>
<defs>
<filter id="filter0_b_2502_730" x="-22.1752" y="-22.1752" width="408.35" height="278.35" filterUnits="userSpaceOnUse" color-interpolation-filters="sRGB">
<feFlood flood-opacity="0" result="BackgroundImageFix"/>
<feGaussianBlur in="BackgroundImageFix" stdDeviation="11.4545"/>
<feComposite in2="SourceAlpha" operator="in" result="effect1_backgroundBlur_2502_730"/>
<feBlend mode="normal" in="SourceGraphic" in2="effect1_backgroundBlur_2502_730" result="shape"/>
</filter>
<filter id="filter1_f_2502_730" x="66.6777" y="-75.9142" width="510.992" height="368.001" filterUnits="userSpaceOnUse" color-interpolation-filters="sRGB">
<feFlood flood-opacity="0" result="BackgroundImageFix"/>
<feBlend mode="normal" in="SourceGraphic" in2="BackgroundImageFix" result="shape"/>
<feGaussianBlur stdDeviation="27.9144" result="effect1_foregroundBlur_2502_730"/>
</filter>
<filter id="filter2_f_2502_730" x="-121.357" y="-143.929" width="546.398" height="377.334" filterUnits="userSpaceOnUse" color-interpolation-filters="sRGB">
<feFlood flood-opacity="0" result="BackgroundImageFix"/>
<feBlend mode="normal" in="SourceGraphic" in2="BackgroundImageFix" result="shape"/>
<feGaussianBlur stdDeviation="27.9144" result="effect1_foregroundBlur_2502_730"/>
</filter>
<linearGradient id="paint0_linear_2502_730" x1="2" y1="2" x2="130.405" y2="324.275" gradientUnits="userSpaceOnUse">
<stop stop-color="white" stop-opacity="0.4"/>
<stop offset="1" stop-color="white" stop-opacity="0"/>
</linearGradient>
<radialGradient id="paint1_radial_2502_730" cx="0" cy="0" r="1" gradientUnits="userSpaceOnUse" gradientTransform="translate(2 2) rotate(32.5741) scale(427.2 269.348)">
<stop stop-color="#8E9128" stop-opacity="0.7"/>
<stop offset="0.614583" stop-color="#B691FF" stop-opacity="0.4"/>
<stop offset="1" stop-color="white" stop-opacity="0"/>
</radialGradient>
<linearGradient id="paint2_linear_2502_730" x1="351.951" y1="228.167" x2="316.94" y2="84.1868" gradientUnits="userSpaceOnUse">
<stop stop-color="#ECECEC" stop-opacity="0.32"/>
<stop offset="0.140625" stop-color="#F9FFF5"/>
<stop offset="1" stop-color="white" stop-opacity="0"/>
</linearGradient>
<linearGradient id="paint3_linear_2502_730" x1="357.631" y1="3.74243" x2="323.401" y2="148.648" gradientUnits="userSpaceOnUse">
<stop stop-color="#979A11"/>
<stop offset="1" stop-color="white" stop-opacity="0"/>
</linearGradient>
</defs>
</svg>
