<svg width="68" height="37" viewBox="0 0 68 37" fill="none" xmlns="http://www.w3.org/2000/svg">
<path opacity="0.997" fill-rule="evenodd" clip-rule="evenodd" d="M0 0C11.3333 0 22.6667 0 34 0C34 4.92585 34 9.85159 34 14.7774C33.2422 14.7403 32.4897 14.778 31.7422 14.8902C31.0117 16.1311 30.2812 17.372 29.5508 18.6128C28.7503 17.4034 28.0199 16.1626 27.3594 14.8902C26.5674 14.7779 25.7705 14.7403 24.9688 14.7774C24.9688 17.2591 24.9688 19.7409 24.9688 22.2226C25.677 22.2226 26.3855 22.2226 27.0938 22.2226C27.0716 20.7932 27.0938 19.3643 27.1602 17.936C27.7356 18.9137 28.3112 19.8912 28.8867 20.8689C29.3018 21.0141 29.7222 21.0141 30.1484 20.8689C30.6814 19.9634 31.2127 19.061 31.7422 18.1616C31.8308 19.5152 31.9192 20.8689 32.0078 22.2226C32.6719 22.2226 33.3359 22.2226 34 22.2226C34 27.1484 34 32.0742 34 37C22.6667 37 11.3333 37 0 37C0 24.6667 0 12.3333 0 0Z" fill="#2488FF"/>
<path fill-rule="evenodd" clip-rule="evenodd" d="M34 0C45.3333 0 56.6667 0 68 0C68 12.3333 68 24.6667 68 37C56.6667 37 45.3333 37 34 37C34 32.0742 34 27.1484 34 22.2226C34 19.7409 34 17.2591 34 14.7774C34 9.85159 34 4.92585 34 0Z" fill="#005ECE"/>
<path opacity="0.998" fill-rule="evenodd" clip-rule="evenodd" d="M18.4609 14.7775C19.125 14.7775 19.7891 14.7775 20.4531 14.7775C21.4714 17.2592 22.4895 19.7409 23.5078 22.2226C22.7995 22.2226 22.0911 22.2226 21.3828 22.2226C21.2058 21.6586 21.0286 21.0945 20.8516 20.5305C19.9176 20.4933 18.9879 20.5309 18.0625 20.6433C17.8536 21.1571 17.6322 21.6648 17.3984 22.1662C16.7358 22.2225 16.0718 22.2413 15.4062 22.2226C16.4236 19.742 17.4417 17.2603 18.4609 14.7775Z" fill="#FCFDFF"/>
<path opacity="0.998" fill-rule="evenodd" clip-rule="evenodd" d="M34 14.7774C34 17.2591 34 19.7408 34 22.2225C33.3359 22.2225 32.6719 22.2225 32.0078 22.2225C32.03 20.7932 32.0078 19.3643 31.9414 17.9359C31.8462 17.9973 31.7798 18.0725 31.7422 18.1615C31.2127 19.0609 30.6814 19.9634 30.1484 20.8688C29.7222 21.014 29.3018 21.014 28.8867 20.8688C28.3112 19.8912 27.7356 18.9136 27.1602 17.9359C27.0938 19.3643 27.0716 20.7932 27.0938 22.2225C26.3855 22.2225 25.677 22.2225 24.9688 22.2225C24.9688 19.7408 24.9688 17.2591 24.9688 14.7774C25.7705 14.7403 26.5674 14.7778 27.3594 14.8902C28.0199 16.1625 28.7503 17.4034 29.5508 18.6127C30.2812 17.3719 31.0117 16.131 31.7422 14.8902C32.4897 14.7779 33.2422 14.7403 34 14.7774Z" fill="#FCFDFF"/>
<path opacity="0.996" fill-rule="evenodd" clip-rule="evenodd" d="M42.7656 17.7104C42.7656 18.1616 42.7656 18.6128 42.7656 19.0641C41.6345 19.0273 40.5277 19.0648 39.4453 19.1769C39.4453 19.7033 39.4453 20.2297 39.4453 20.7561C40.8177 20.7561 42.1901 20.7561 43.5625 20.7561C43.5625 21.2449 43.5625 21.7338 43.5625 22.2226C41.4817 22.2226 39.4011 22.2226 37.3203 22.2226C37.3203 19.7409 37.3203 17.2592 37.3203 14.7775C39.3567 14.7775 41.3933 14.7775 43.4297 14.7775C43.4297 15.2662 43.4297 15.7551 43.4297 16.2439C42.1016 16.2439 40.7734 16.2439 39.4453 16.2439C39.4453 16.7327 39.4453 17.2216 39.4453 17.7104C40.552 17.7104 41.6589 17.7104 42.7656 17.7104Z" fill="#FCFDFE"/>
<path opacity="0.998" fill-rule="evenodd" clip-rule="evenodd" d="M44.4922 14.7775C45.25 14.7404 46.0025 14.7781 46.75 14.8903C47.3477 15.6799 47.9453 16.4696 48.543 17.2592C49.2013 16.4605 49.8432 15.6521 50.4688 14.8339C51.1812 14.7404 51.8896 14.7591 52.5938 14.8903C51.6026 16.1045 50.6287 17.3265 49.6719 18.5565C50.6172 19.7293 51.5469 20.9137 52.4609 22.1098C51.7568 22.241 51.0483 22.2597 50.3359 22.1662C49.7878 21.3664 49.1902 20.5955 48.543 19.8537C47.9618 20.6342 47.3641 21.405 46.75 22.1662C46.0376 22.2597 45.3292 22.241 44.625 22.1098C45.539 20.9137 46.4687 19.7293 47.4141 18.5565C46.4217 17.3019 45.4476 16.0423 44.4922 14.7775Z" fill="#FCFDFE"/>
<path fill-rule="evenodd" clip-rule="evenodd" d="M20.3203 19.1769C19.7266 19.2881 19.1068 19.3257 18.4609 19.2897C18.7526 18.4525 19.0846 17.6253 19.457 16.808C19.7859 17.5894 20.0737 18.379 20.3203 19.1769Z" fill="#2D8AFF"/>
<path opacity="0.804" fill-rule="evenodd" clip-rule="evenodd" d="M32.0078 22.2226C31.9192 20.869 31.8308 19.5153 31.7422 18.1616C31.7798 18.0726 31.8462 17.9974 31.9414 17.936C32.0078 19.3644 32.03 20.7933 32.0078 22.2226Z" fill="#6BAEFF"/>
<path opacity="0.753" fill-rule="evenodd" clip-rule="evenodd" d="M42.7656 17.7104C42.8964 18.1768 42.9407 18.6657 42.8984 19.1769C41.7474 19.1769 40.5964 19.1769 39.4453 19.1769C40.5277 19.0649 41.6345 19.0273 42.7656 19.0641C42.7656 18.6129 42.7656 18.1617 42.7656 17.7104Z" fill="#BBD4F1"/>
<path opacity="0.804" fill-rule="evenodd" clip-rule="evenodd" d="M20.3203 19.1769C20.3924 19.1836 20.4367 19.2212 20.4531 19.2897C19.7689 19.4379 19.1048 19.4379 18.4609 19.2897C19.1068 19.3257 19.7266 19.2881 20.3203 19.1769Z" fill="#6BAFFF"/>
</svg>
