<svg width="43" height="45" viewBox="0 0 43 45" fill="none" xmlns="http://www.w3.org/2000/svg">
<path d="M24.2089 30.2342C33.1568 30.2744 41.3247 23.4954 41.3247 15.2484C41.3247 6.23061 33.1568 -0.00258436 24.2089 8.03827e-07H16.5084C7.45335 -0.00258436 0 6.23209 0 15.2484C0 23.4973 7.45335 30.2744 16.5084 30.2342H24.2089Z" fill="#006095"/>
<path d="M19.4868 23.2305V7.00712C22.9407 8.25806 25.3927 11.4152 25.3985 15.1183C25.3927 18.8221 22.9407 21.9774 19.4868 23.2305ZM6.99068 15.1183C6.99843 11.4174 9.4465 8.26208 12.8985 7.00749V23.2273C9.4465 21.9738 6.99843 18.8202 6.99068 15.1183ZM16.1932 1.40625C8.17481 1.40881 1.67723 7.54533 1.67529 15.1183C1.67723 22.6905 8.17481 28.8259 16.1932 28.8281C24.2144 28.8259 30.7131 22.6905 30.7143 15.1183C30.7131 7.54533 24.2144 1.40881 16.1932 1.40625Z" fill="white"/>
<path d="M0.855576 33.3668C0.855576 32.4899 0.423943 32.5474 0.0104655 32.5381V32.2847C0.368842 32.3033 0.736402 32.3033 1.09563 32.3033C1.48156 32.3033 2.00588 32.2847 2.68675 32.2847C5.06788 32.2847 6.36427 33.971 6.36427 35.6979C6.36427 36.6633 5.83141 39.0911 2.57591 39.0911C2.10733 39.0911 1.67442 39.0719 1.24257 39.0719C0.829092 39.0719 0.423943 39.0811 0.0104655 39.0911V38.8375C0.561698 38.7788 0.829093 38.7593 0.855576 38.0962V33.3668ZM1.75685 37.9404C1.75685 38.6912 2.26324 38.7788 2.71345 38.7788C4.70011 38.7788 5.35258 37.1894 5.35258 35.7364C5.35258 33.9135 4.24904 32.5972 2.47446 32.5972C2.09686 32.5972 1.92323 32.6258 1.75685 32.6362V37.9404ZM6.68677 38.8377H6.86126C7.1184 38.8377 7.3025 38.8377 7.3025 38.5152V35.8732C7.3025 35.4445 7.16474 35.3849 6.8241 35.191V35.0348C7.25637 34.8975 7.77172 34.7132 7.80803 34.684C7.87274 34.645 7.92763 34.6346 7.97376 34.6346C8.01925 34.6346 8.03826 34.6932 8.03826 34.7718V38.5152C8.03826 38.8377 8.24051 38.8377 8.4983 38.8377H8.65421V39.0913C8.34132 39.0913 8.01925 39.0719 7.68907 39.0719C7.35782 39.0719 7.02656 39.0814 6.68677 39.0913V38.8377ZM7.6707 33.1333C7.43107 33.1333 7.22006 32.8994 7.22006 32.6457C7.22006 32.4016 7.44111 32.1767 7.6707 32.1767C7.90905 32.1767 8.12113 32.3823 8.12113 32.6457C8.12113 32.9093 7.91845 33.1333 7.6707 33.1333ZM9.52793 35.9314C9.52793 35.5708 9.42627 35.4737 8.99507 35.2884V35.1032C9.38997 34.9668 9.76671 34.8395 10.2086 34.6346C10.2359 34.6346 10.2628 34.6545 10.2628 34.732V35.3661C10.7878 34.9668 11.2387 34.6346 11.8555 34.6346C12.6365 34.6346 12.9122 35.2393 12.9122 36V38.5152C12.9122 38.8377 13.1143 38.8377 13.372 38.8377H13.5376V39.0913C13.2151 39.0913 12.8932 39.0719 12.563 39.0719C12.2316 39.0719 11.9003 39.0814 11.5695 39.0913V38.8377H11.7348C11.9928 38.8377 12.1758 38.8377 12.1758 38.5152V35.9905C12.1758 35.434 11.8555 35.1616 11.3305 35.1616C11.0364 35.1616 10.5674 35.4148 10.2628 35.6295V38.5152C10.2628 38.8377 10.4664 38.8377 10.7239 38.8377H10.8892V39.0913C10.5674 39.0913 10.2451 39.0719 9.91408 39.0719C9.58346 39.0719 9.25179 39.0814 8.92117 39.0913V38.8377H9.08712C9.34447 38.8377 9.52793 38.8377 9.52793 38.5152V35.9314ZM14.2368 36.4002C14.2178 36.488 14.2178 36.6339 14.2368 36.9657C14.2908 37.8917 14.8534 38.652 15.5879 38.652C16.0945 38.652 16.4904 38.3594 16.8298 37.9991L16.9584 38.1356C16.5353 38.7306 16.011 39.2374 15.2577 39.2374C13.7949 39.2374 13.501 37.7354 13.501 37.1117C13.501 35.2003 14.7143 34.6346 15.3576 34.6346C16.1032 34.6346 16.9039 35.1317 16.912 36.1653C16.912 36.2247 16.912 36.2824 16.9039 36.3415L16.8204 36.4002H14.2368ZM15.8647 36.0879C16.0945 36.0879 16.1212 35.9608 16.1212 35.844C16.1212 35.3468 15.8365 34.9471 15.3211 34.9471C14.7605 34.9471 14.3743 35.3849 14.2641 36.0879H15.8647ZM17.1241 38.8377H17.3725C17.629 38.8377 17.8131 38.8377 17.8131 38.5152V35.7758C17.8131 35.4737 17.4733 35.4148 17.3351 35.3369V35.191C18.0064 34.8885 18.3744 34.6346 18.4583 34.6346C18.5123 34.6346 18.5397 34.6638 18.5397 34.7619V35.6392H18.5593C18.7883 35.259 19.1753 34.6346 19.7359 34.6346C19.9659 34.6346 20.2598 34.8001 20.2598 35.1514C20.2598 35.4148 20.0855 35.6494 19.8281 35.6494C19.542 35.6494 19.542 35.4148 19.2205 35.4148C19.064 35.4148 18.5493 35.6392 18.5493 36.2247V38.5152C18.5493 38.8377 18.7327 38.8377 18.9905 38.8377H19.5052V39.0913C18.9993 39.0814 18.6144 39.0719 18.2184 39.0719C17.8415 39.0719 17.4551 39.0814 17.1241 39.0913V38.8377ZM20.6643 37.7354C20.7841 38.3789 21.1517 38.9253 21.8234 38.9253C22.365 38.9253 22.5672 38.5743 22.5672 38.2332C22.5672 37.0823 20.5633 37.4526 20.5633 35.8831C20.5633 35.3367 20.9776 34.6346 21.9887 34.6346C22.2825 34.6346 22.6779 34.7227 23.0362 34.9179L23.1012 35.9117H22.8895C22.7977 35.2979 22.476 34.9469 21.8872 34.9469C21.519 34.9469 21.17 35.1711 21.17 35.5903C21.17 36.7319 23.3034 36.3802 23.3034 37.911C23.3034 38.5544 22.816 39.2376 21.7215 39.2376C21.3537 39.2376 20.9214 39.1008 20.6 38.9061L20.4986 37.7846L20.6643 37.7354ZM31.6069 34.0494H31.3776C31.2024 32.9093 30.4391 32.4505 29.4097 32.4505C28.3516 32.4505 26.8156 33.201 26.8156 35.5412C26.8156 37.5119 28.1409 38.9253 29.5564 38.9253C30.4664 38.9253 31.2212 38.2624 31.4053 37.2381L31.6163 37.2965L31.4053 38.7201C31.019 38.9745 29.9797 39.2374 29.3723 39.2374C27.2212 39.2374 25.8605 37.7649 25.8605 35.5708C25.8605 33.5718 27.5428 32.138 29.3452 32.138C30.0897 32.138 30.8073 32.3923 31.5151 32.6557L31.6069 34.0494ZM31.9386 38.8377H32.1125C32.3707 38.8377 32.5548 38.8377 32.5548 38.5152V33.0848C32.5548 32.4505 32.4168 32.431 32.0674 32.3239V32.1679C32.435 32.0413 32.8213 31.8657 33.0144 31.7482C33.1148 31.6902 33.1889 31.6406 33.216 31.6406C33.2719 31.6406 33.2905 31.6997 33.2905 31.7779V38.5152C33.2905 38.8377 33.4926 38.8377 33.7504 38.8377H33.9056V39.0913C33.594 39.0913 33.2719 39.0719 32.9409 39.0719C32.6101 39.0719 32.279 39.0814 31.9386 39.0913V38.8377ZM37.8428 38.5544C37.8428 38.7306 37.9436 38.7399 38.0998 38.7399C38.2104 38.7399 38.3477 38.7306 38.4678 38.7306V38.9358C38.0718 38.9745 37.3181 39.1792 37.1432 39.2376L37.0968 39.2082V38.4187C36.546 38.8963 36.1223 39.2376 35.4688 39.2376C34.9726 39.2376 34.4577 38.8963 34.4577 38.0776V35.5808C34.4577 35.3271 34.4212 35.0832 33.9067 35.0348V34.8493C34.2382 34.8398 34.9726 34.7813 35.0927 34.7813C35.1945 34.7813 35.1945 34.8493 35.1945 35.064V37.5792C35.1945 37.8722 35.1945 38.7106 35.9939 38.7106C36.3066 38.7106 36.7203 38.4572 37.106 38.1166V35.4925C37.106 35.2979 36.665 35.191 36.3346 35.0934V34.9179C37.1613 34.859 37.6771 34.7813 37.7685 34.7813C37.8428 34.7813 37.8428 34.8493 37.8428 34.9571V38.5544ZM39.6725 35.3369C40.0399 35.0053 40.5366 34.6346 41.0428 34.6346C42.1096 34.6346 42.7525 35.6202 42.7525 36.6826C42.7525 37.9599 41.8702 39.2376 40.5544 39.2376C39.8746 39.2376 39.516 39.0032 39.2766 38.8963L39.0011 39.1201L38.8086 39.0132C38.89 38.438 38.937 37.8722 38.937 37.2775V33.0848C38.937 32.4505 38.7984 32.431 38.4492 32.3239V32.1679C38.8178 32.0413 39.2031 31.8657 39.3966 31.7482C39.4976 31.6902 39.5707 31.6406 39.5993 31.6406C39.6544 31.6406 39.6725 31.6997 39.6725 31.7779V35.3369ZM39.6725 37.9889C39.6725 38.3594 40.0034 38.9842 40.6195 38.9842C41.6037 38.9842 42.0171 37.9599 42.0171 37.0916C42.0171 36.0387 41.2639 35.1616 40.5463 35.1616C40.2052 35.1616 39.9207 35.3958 39.6725 35.6202V37.9889ZM0 44.7606H0.0704791C0.250308 44.7606 0.44039 44.7348 0.44039 44.4585V41.679C0.44039 41.4023 0.250308 41.376 0.0704791 41.376H0V41.2168C0.195206 41.2168 0.495491 41.2376 0.741314 41.2376C0.991195 41.2376 1.29105 41.2168 1.5262 41.2168V41.376H1.45593C1.27653 41.376 1.08602 41.4023 1.08602 41.679V44.4585C1.08602 44.7348 1.27653 44.7606 1.45593 44.7606H1.5262V44.9205C1.28614 44.9205 0.985215 44.8997 0.735975 44.8997C0.49058 44.8997 0.195206 44.9205 0 44.9205V44.7606ZM4.96387 43.8747L4.97391 43.8642V41.8749C4.97391 41.4396 4.68836 41.376 4.53843 41.376H4.42823V41.2168C4.66359 41.2168 4.89382 41.2378 5.12875 41.2378C5.33378 41.2378 5.53967 41.2168 5.74427 41.2168V41.376H5.66973C5.45894 41.376 5.22379 41.4186 5.22379 42.0497V44.4644C5.22379 44.6499 5.22892 44.8354 5.25348 44.9998H5.0634L2.48685 41.9539V44.1403C2.48685 44.6019 2.57121 44.7606 2.95692 44.7606H3.04171V44.9205C2.82686 44.9205 2.612 44.8997 2.39651 44.8997C2.17204 44.8997 1.9416 44.9205 1.71628 44.9205V44.7606H1.78633C2.13146 44.7606 2.23633 44.5117 2.23633 44.0878V41.8529C2.23633 41.5563 2.00567 41.376 1.78142 41.376H1.71628V41.2168C1.90614 41.2168 2.10135 41.2378 2.291 41.2378C2.44136 41.2378 2.5868 41.2168 2.73673 41.2168L4.96387 43.8747ZM6.4937 41.482C6.11781 41.482 6.10371 41.5776 6.02853 41.9644H5.87861C5.89804 41.816 5.92346 41.6677 5.93862 41.5135C5.95891 41.3647 5.96852 41.2168 5.96852 41.063H6.08855C6.12891 41.2224 6.25385 41.2168 6.38969 41.2168H8.97072C9.10613 41.2168 9.23085 41.2116 9.24132 41.0521L9.36071 41.0734C9.34127 41.2168 9.32098 41.3597 9.30582 41.5033C9.29663 41.6466 9.29663 41.79 9.29663 41.9329L9.14628 41.9918C9.13603 41.7956 9.11083 41.482 8.77594 41.482H7.95539V44.3047C7.95539 44.714 8.13074 44.7606 8.37037 44.7606H8.46541V44.9205C8.27042 44.9205 7.91994 44.8997 7.6502 44.8997C7.34991 44.8997 6.99944 44.9205 6.80402 44.9205V44.7606H6.89906C7.17521 44.7606 7.31446 44.7346 7.31446 44.3158V41.482H6.4937ZM9.52067 44.7606H9.59094C9.77098 44.7606 9.96127 44.7348 9.96127 44.4585V41.679C9.96127 41.4023 9.77098 41.376 9.59094 41.376H9.52067V41.2168C9.82523 41.2168 10.3468 41.2376 10.7662 41.2376C11.1872 41.2376 11.7068 41.2168 12.0468 41.2168C12.0383 41.4446 12.0432 41.7954 12.0577 42.0287L11.9069 42.0713C11.8828 41.7266 11.823 41.4507 11.2972 41.4507H10.6024V42.8404H11.197C11.4971 42.8404 11.5626 42.6605 11.5923 42.3734H11.7421C11.7322 42.5808 11.7271 42.7876 11.7271 42.9941C11.7271 43.1964 11.7322 43.3977 11.7421 43.5993L11.5923 43.6307C11.5626 43.3128 11.5475 43.1058 11.2017 43.1058H10.6024V44.3419C10.6024 44.6868 10.8914 44.6868 11.2117 44.6868C11.8125 44.6868 12.0774 44.644 12.2277 44.04L12.3676 44.0764C12.3023 44.3584 12.2425 44.6388 12.198 44.9205C11.8772 44.9205 11.3019 44.8997 10.8521 44.8997C10.4012 44.8997 9.80579 44.9205 9.52067 44.9205V44.7606ZM13.0429 41.7789C13.0429 41.3918 12.8428 41.376 12.6873 41.376H12.5972V41.2166C12.7574 41.2166 13.0675 41.2378 13.3729 41.2378C13.6728 41.2378 13.9132 41.2166 14.1783 41.2166C14.8083 41.2166 15.3694 41.3968 15.3694 42.151C15.3694 42.6277 15.0693 42.9196 14.674 43.0849L15.5293 44.4422C15.6697 44.6666 15.7692 44.7296 16.0148 44.7604V44.9205C15.8495 44.9205 15.6893 44.8997 15.5244 44.8997C15.3694 44.8997 15.2088 44.9205 15.0544 44.9205C14.6691 44.3847 14.338 43.8117 14.0132 43.2007H13.6836V44.3367C13.6836 44.7457 13.8633 44.7604 14.0931 44.7604H14.1834V44.9205C13.8976 44.9205 13.6085 44.8997 13.3229 44.8997C13.0824 44.8997 12.8473 44.9205 12.5972 44.9205V44.7604H12.6873C12.8731 44.7604 13.0429 44.6714 13.0429 44.4748V41.7789ZM13.6836 43.0095H13.928C14.4288 43.0095 14.6983 42.8084 14.6983 42.182C14.6983 41.7105 14.4134 41.4079 13.9677 41.4079C13.8173 41.4079 13.7533 41.4242 13.6836 41.429V43.0095ZM19.4119 43.8747L19.4209 43.8642V41.8749C19.4209 41.4396 19.1362 41.376 18.9862 41.376H18.8765V41.2168C19.1116 41.2168 19.341 41.2378 19.5768 41.2378C19.7822 41.2378 19.9864 41.2168 20.1931 41.2168V41.376H20.1175C19.9076 41.376 19.6722 41.4186 19.6722 42.0497V44.4644C19.6722 44.6499 19.6769 44.8354 19.7017 44.9998H19.5121L16.9353 41.9539V44.1403C16.9353 44.6019 17.0201 44.7606 17.4054 44.7606H17.4904V44.9205C17.2755 44.9205 17.0602 44.8997 16.8454 44.8997C16.6194 44.8997 16.3894 44.9205 16.1645 44.9205V44.7606H16.2339C16.5797 44.7606 16.6848 44.5117 16.6848 44.0878V41.8529C16.6848 41.5563 16.4545 41.376 16.2297 41.376H16.1645V41.2168C16.354 41.2168 16.55 41.2378 16.7401 41.2378C16.889 41.2378 17.0346 41.2168 17.1852 41.2168L19.4119 43.8747ZM20.9977 44.1618C20.9468 44.3419 20.8866 44.4807 20.8866 44.5754C20.8866 44.7348 21.097 44.7606 21.2617 44.7606H21.3176V44.9205C21.1171 44.909 20.9127 44.8999 20.7111 44.8999C20.5312 44.8999 20.3523 44.909 20.1714 44.9205V44.7606H20.2017C20.3967 44.7606 20.5622 44.6388 20.6361 44.4155L21.4376 41.9811C21.5019 41.7848 21.5929 41.5193 21.623 41.3223C21.7823 41.2648 21.9829 41.1588 22.0779 41.0949C22.0933 41.0893 22.1021 41.0838 22.1179 41.0838C22.1328 41.0838 22.142 41.0838 22.1533 41.1001C22.1683 41.1425 22.1824 41.1903 22.1986 41.2326L23.1191 44.0078C23.1789 44.1933 23.2385 44.3894 23.3032 44.5493C23.3639 44.6979 23.4689 44.7606 23.6342 44.7606H23.6641V44.9205C23.439 44.909 23.2135 44.8999 22.9739 44.8999C22.7289 44.8999 22.478 44.909 22.2227 44.9205V44.7606H22.2783C22.3927 44.7606 22.5886 44.74 22.5886 44.6071C22.5886 44.5384 22.5435 44.3953 22.4876 44.225L22.293 43.6097H21.1572L20.9977 44.1618ZM21.7279 41.811H21.7176L21.2523 43.3128H22.1873L21.7279 41.811ZM23.8843 41.482C23.5089 41.482 23.4939 41.5776 23.4187 41.9644H23.2684C23.288 41.816 23.3135 41.6677 23.329 41.5135C23.3489 41.3647 23.3583 41.2168 23.3583 41.063H23.479C23.5187 41.2224 23.6443 41.2168 23.7788 41.2168H26.3611C26.4957 41.2168 26.6206 41.2116 26.6309 41.0521L26.7507 41.0734C26.7315 41.2168 26.7114 41.3597 26.6965 41.5033C26.6853 41.6466 26.6853 41.79 26.6853 41.9329L26.5356 41.9918C26.5264 41.7956 26.5012 41.482 26.1659 41.482H25.3452V44.3047C25.3452 44.714 25.5207 44.7606 25.7604 44.7606H25.8556V44.9205C25.6604 44.9205 25.3104 44.8997 25.04 44.8997C24.7403 44.8997 24.3892 44.9205 24.1942 44.9205V44.7606H24.2893C24.565 44.7606 24.7049 44.7346 24.7049 44.3158V41.482H23.8843ZM26.9352 44.7606H27.0053C27.186 44.7606 27.3752 44.7348 27.3752 44.4585V41.679C27.3752 41.4023 27.186 41.376 27.0053 41.376H26.9352V41.2168C27.1309 41.2168 27.4305 41.2376 27.6753 41.2376C27.9262 41.2376 28.2263 41.2168 28.4618 41.2168V41.376H28.3918C28.2113 41.376 28.0208 41.4023 28.0208 41.679V44.4585C28.0208 44.7348 28.2113 44.7606 28.3918 44.7606H28.4618V44.9205C28.2214 44.9205 27.9211 44.8997 27.6712 44.8997C27.4256 44.8997 27.1309 44.9205 26.9352 44.9205V44.7606ZM30.4573 41.1375C31.5241 41.1375 32.3741 41.8382 32.3741 42.9683C32.3741 44.1888 31.5484 45 30.4831 45C29.4214 45 28.6114 44.2361 28.6114 43.0954C28.6114 41.992 29.4167 41.1375 30.4573 41.1375ZM30.5329 44.7665C31.5038 44.7665 31.6727 43.8586 31.6727 43.0852C31.6727 42.3093 31.2787 41.3706 30.4477 41.3706C29.5718 41.3706 29.3119 42.1985 29.3119 42.9088C29.3119 43.8586 29.7221 44.7665 30.5329 44.7665ZM35.7458 43.8747L35.756 43.8642V41.8749C35.756 41.4396 35.47 41.376 35.3199 41.376H35.2114V41.2168C35.4457 41.2168 35.6761 41.2378 35.9104 41.2378C36.1165 41.2378 36.3216 41.2168 36.527 41.2168V41.376H36.4514C36.2417 41.376 36.0061 41.4186 36.0061 42.0497V44.4644C36.0061 44.6499 36.0108 44.8354 36.0362 44.9998H35.8464L33.269 41.9539V44.1403C33.269 44.6019 33.3542 44.7606 33.739 44.7606H33.8245V44.9205C33.6092 44.9205 33.3945 44.8997 33.1793 44.8997C32.9542 44.8997 32.7233 44.9205 32.498 44.9205V44.7606H32.5687C32.9144 44.7606 33.0184 44.5117 33.0184 44.0878V41.8529C33.0184 41.5563 32.7895 41.376 32.5633 41.376H32.498V41.2168C32.6885 41.2168 32.8837 41.2378 33.0735 41.2378C33.2235 41.2378 33.3683 41.2168 33.5188 41.2168L35.7458 43.8747ZM37.3309 44.1618C37.2818 44.3419 37.2211 44.4807 37.2211 44.5754C37.2211 44.7348 37.4319 44.7606 37.596 44.7606H37.6519V44.9205C37.4516 44.909 37.2461 44.8999 37.046 44.8999C36.8653 44.8999 36.6859 44.909 36.5065 44.9205V44.7606H36.5349C36.7308 44.7606 36.8965 44.6388 36.9704 44.4155L37.7722 41.9811C37.8369 41.7848 37.9274 41.5193 37.9565 41.3223C38.1169 41.2648 38.3168 41.1588 38.4127 41.0949C38.427 41.0893 38.437 41.0838 38.4522 41.0838C38.4671 41.0838 38.4767 41.0838 38.4868 41.1001C38.5019 41.1425 38.5173 41.1903 38.5325 41.2326L39.4525 44.0078C39.5126 44.1933 39.5724 44.3894 39.6381 44.5493C39.6982 44.6979 39.8037 44.7606 39.9683 44.7606H39.9989V44.9205C39.7733 44.909 39.548 44.8999 39.3075 44.8999C39.063 44.8999 38.8123 44.909 38.557 44.9205V44.7606H38.6124C38.7266 44.7606 38.9231 44.74 38.9231 44.6071C38.9231 44.5384 38.8776 44.3953 38.8219 44.225L38.6275 43.6097H37.4915L37.3309 44.1618ZM38.0622 41.811H38.0521L37.5861 43.3128H38.5227L38.0622 41.811ZM41.2596 44.4003C41.2596 44.613 41.3986 44.6761 41.5588 44.6979C41.7641 44.714 41.9892 44.714 42.22 44.687C42.4298 44.6603 42.6098 44.5332 42.6997 44.4003C42.7796 44.2834 42.8244 44.1351 42.855 44.0182H43C42.9451 44.3206 42.8748 44.6184 42.8144 44.9205C42.3753 44.9205 41.9334 44.8999 41.4943 44.8999C41.0533 44.8999 40.6135 44.9205 40.1731 44.9205V44.7606H40.2421C40.423 44.7606 40.6187 44.7348 40.6187 44.4055V41.6788C40.6187 41.4023 40.423 41.376 40.2421 41.376H40.1731V41.2168C40.4378 41.2168 40.6983 41.2378 40.9632 41.2378C41.2192 41.2378 41.4689 41.2168 41.7243 41.2168V41.376H41.5985C41.4089 41.376 41.2596 41.3819 41.2596 41.6625V44.4003Z" fill="#1A1918"/>
</svg>
