<svg width="55" height="24" viewBox="0 0 55 24" fill="none" xmlns="http://www.w3.org/2000/svg">
<path fill-rule="evenodd" clip-rule="evenodd" d="M8.25661 5.12589C8.89512 4.90106 9.56115 4.78864 10.2327 4.78864C13.2546 4.78864 15.7756 7.04881 16.3481 10.0485L20.625 9.13147C19.6507 4.03131 15.3683 0.191406 10.2382 0.191406C9.06025 0.191406 7.93185 0.392572 6.875 0.765321L8.25661 5.12589Z" fill="#FFCA05"/>
<path fill-rule="evenodd" clip-rule="evenodd" d="M3.80147 20.5627L6.875 16.911C5.5 15.6317 4.63918 13.7686 4.63918 11.6881C4.63918 9.60769 5.50578 7.7446 6.875 6.47149L3.80147 2.81982C1.47321 4.99343 0 8.16069 0 11.6944C0 15.2218 1.47321 18.3953 3.80147 20.5627Z" fill="#00A4DF"/>
<path fill-rule="evenodd" clip-rule="evenodd" d="M16.3515 13.3342C15.774 16.3322 13.255 18.591 10.241 18.591C9.57 18.591 8.899 18.4786 8.261 18.2539L6.875 22.6178C7.931 22.9903 9.064 23.1914 10.241 23.1914C15.367 23.1914 19.6405 19.3597 20.625 14.2626L16.3515 13.3342Z" fill="#EE4123"/>
<path fill-rule="evenodd" clip-rule="evenodd" d="M32.9192 15.5758L32.7919 15.4889C32.4377 16.1285 31.8954 16.6502 31.2036 16.9855C29.892 17.6314 28.6745 17.4637 27.8002 16.6005L27.7227 16.7371H27.7171L26.2285 19.2523C26.5993 19.5442 26.9977 19.7864 27.4128 19.9851C29.0619 20.7552 30.7443 20.7241 32.4045 19.9044C33.6054 19.3206 34.5462 18.4201 35.1936 17.2898L32.9192 15.5758ZM28.265 9.3717C26.876 10.0424 26.1621 11.508 26.3115 13.2283L32.1887 10.3778C31.1759 9.04256 29.8644 8.60162 28.265 9.3717ZM24.3635 17.0352C24.1975 16.7247 24.0481 16.4018 23.9153 16.0664C23.2346 14.2903 23.2069 12.4582 23.7769 10.6945C24.4078 8.76309 25.6087 7.27883 27.1637 6.52738C29.1173 5.5772 31.2811 5.76351 33.1516 7.01799C34.3414 7.78807 35.1826 8.97424 35.8245 10.6572C35.9075 10.8746 35.9795 11.1044 36.0459 11.2969L24.3635 17.0352ZM40.1355 2.81982V16.7992L42.0669 17.6811L40.9712 20.5627L38.8406 19.569C38.3647 19.333 38.0381 18.9791 37.7891 18.5754C37.5511 18.1655 37.3796 17.6004 37.3796 16.8427V2.81982H40.1355ZM45.1328 13.2407C45.1328 14.3834 45.5644 15.4702 46.3281 16.2217L44.3525 18.712C42.9579 17.3209 42.1665 15.3274 42.1721 13.2407C42.1721 11.1479 42.969 9.16055 44.3636 7.77565L46.3392 10.2598C45.57 11.0112 45.1328 12.098 45.1328 13.2407ZM48.6469 17.2091C50.3459 17.2091 51.7626 15.8553 52.0946 14.0481L55 14.7188C54.3968 18.0475 51.7792 20.5565 48.6469 20.5503C47.9496 20.5503 47.2523 20.4198 46.5882 20.1714L47.5346 17.0042C47.8832 17.1346 48.254 17.2091 48.6469 17.2091ZM48.6524 5.9374C51.7847 5.9374 54.4023 8.45258 55 11.7875L52.0946 12.452C51.7681 10.6076 50.3237 9.27855 48.6524 9.27855C48.2761 9.27855 47.8943 9.34686 47.5401 9.48349L46.6048 6.31623C47.2634 6.06161 47.9552 5.9374 48.6524 5.9374Z" fill="#050505"/>
</svg>
