<svg width="82" height="52" viewBox="0 0 82 52" fill="none" xmlns="http://www.w3.org/2000/svg">
<path d="M35.0962 41.7811L5.13843 41.792V41.7192C5.13843 41.6791 5.18621 41.4195 5.24455 41.1422C5.30299 40.8649 5.39374 40.4239 5.44644 40.1621C5.49892 39.9003 5.58884 39.4555 5.64603 39.1735C5.70332 38.8917 5.79857 38.4221 5.85764 38.1301C5.91661 37.8382 6.00903 37.3768 6.06309 37.1051C6.11714 36.8331 6.20716 36.3882 6.26341 36.1165C6.31955 35.8446 6.41543 35.3751 6.47638 35.0731C6.53723 34.771 6.62976 34.3097 6.68204 34.0478C6.73431 33.786 6.81733 33.3824 6.86657 33.151C6.91571 32.9193 6.97855 32.6063 7.00594 32.4552C7.03344 32.3043 7.12241 31.8594 7.20365 31.4667C7.28489 31.0741 7.37438 30.6292 7.40282 30.4782C7.43115 30.3271 7.52117 29.8822 7.60293 29.4896C7.68459 29.0971 7.7743 28.6522 7.80231 28.5011C7.83034 28.3501 7.92056 27.9052 8.00274 27.5126C8.08513 27.1199 8.174 26.6833 8.20014 26.5424C8.22648 26.4014 8.29842 26.039 8.3601 25.7369C8.42168 25.4349 8.53836 24.8665 8.61929 24.4738C8.70031 24.0811 8.83874 23.3974 8.92688 22.9543C9.01523 22.5113 9.12072 21.9841 9.16139 21.7828C9.20196 21.5815 9.27546 21.2189 9.3247 20.9773C9.37394 20.7356 9.46323 20.299 9.52324 20.0071C9.58326 19.715 9.68081 19.2373 9.74009 18.9453C9.79947 18.6533 9.89085 18.2002 9.94323 17.9385C9.99561 17.6767 10.085 17.2401 10.1419 16.9682C10.1988 16.6964 10.2966 16.2186 10.3593 15.9065C10.4221 15.5943 10.5272 15.1166 10.5928 14.8447C10.6585 14.5728 10.7513 14.2433 10.7992 14.1125C10.847 13.9815 10.979 13.6979 11.0926 13.4819L11.2991 13.0895L11.4867 12.8412C11.5898 12.7048 11.7742 12.4891 11.8962 12.362C12.0182 12.2349 12.2239 12.0436 12.3537 11.9369C12.4832 11.8302 12.6709 11.6862 12.7705 11.6169C12.8703 11.5477 13.0661 11.4264 13.2057 11.3474C13.3453 11.2684 13.5412 11.1651 13.6408 11.1177C13.7406 11.0703 13.9446 10.9836 14.0941 10.9252C14.2436 10.8669 14.5291 10.7691 14.7285 10.7079C14.9279 10.6467 15.3023 10.5544 15.5604 10.503C15.8185 10.4515 16.2263 10.3827 16.4669 10.35L16.904 10.2907L46.8799 10.2793L76.8556 10.2676V10.3404C76.8556 10.3804 76.8075 10.64 76.7489 10.9173C76.69 11.1945 76.5919 11.6686 76.5306 11.9706C76.4692 12.2727 76.3799 12.7093 76.3318 12.9409C76.2838 13.1725 76.1929 13.6173 76.1297 13.9294C76.0667 14.2415 75.9696 14.7194 75.914 14.9911C75.8585 15.263 75.7685 15.7079 75.7141 15.9796C75.6598 16.2516 75.5692 16.6964 75.5131 16.9682C75.4567 17.2401 75.3697 17.6685 75.3193 17.9202C75.2689 18.1719 75.1779 18.6249 75.1169 18.927C75.0559 19.229 74.9579 19.7069 74.8991 19.9888C74.8403 20.2706 74.7509 20.7073 74.7003 20.959C74.6495 21.2107 74.5584 21.6637 74.4977 21.9658C74.4368 22.2678 74.3391 22.7457 74.2803 23.0276C74.2215 23.3095 74.134 23.7379 74.0857 23.9795C74.0375 24.2211 73.9467 24.6742 73.8839 24.9863C73.8211 25.2984 73.7298 25.7515 73.6807 25.9933C73.6316 26.2348 73.544 26.6632 73.4861 26.945C73.428 27.227 73.3288 27.7131 73.2657 28.0252C73.2024 28.3374 73.1119 28.782 73.0647 29.0138C73.0172 29.2452 72.9286 29.6819 72.8676 29.9838C72.8066 30.2861 72.7096 30.7637 72.6519 31.0457C72.5943 31.3276 72.504 31.7725 72.4511 32.0343C72.3984 32.296 72.3065 32.7491 72.2472 33.0411C72.1877 33.333 72.0907 33.8108 72.0315 34.1027C71.9723 34.3948 71.8837 34.8314 71.8344 35.0731C71.7852 35.3146 71.6952 35.7595 71.6345 36.0616C71.5738 36.3636 71.4748 36.8397 71.4148 37.1193L71.3057 37.6279L71.1756 37.9797C71.1041 38.1732 70.9965 38.4304 70.9365 38.5513C70.8767 38.6719 70.7547 38.8852 70.6655 39.025C70.5762 39.1647 70.4518 39.3436 70.3891 39.4227C70.3263 39.5018 70.1374 39.7059 69.9691 39.8766L69.6635 40.1864L69.3692 40.3976C69.2073 40.5137 69.0329 40.6318 68.9818 40.66C68.9306 40.6882 68.7356 40.7888 68.5484 40.8833C68.3614 40.978 68.097 41.0984 67.9612 41.1508C67.8252 41.2035 67.556 41.293 67.3629 41.3496C67.1698 41.4065 66.9628 41.4625 66.903 41.474C66.8431 41.4856 66.6355 41.5289 66.4415 41.5705C66.2476 41.612 65.856 41.674 65.5714 41.7082L65.0539 41.7704L35.0962 41.7811ZM24.4377 33.9564H25.2173L25.2392 33.8984C25.2515 33.8666 25.2613 33.7917 25.2613 33.7321C25.2613 33.6723 25.287 33.4554 25.3185 33.25C25.3498 33.0443 25.4234 32.5715 25.4822 32.199C25.5409 31.8264 25.6287 31.2662 25.6774 30.9542C25.7261 30.642 25.7856 30.2425 25.8097 30.0663C25.8336 29.8901 25.8628 29.7459 25.8746 29.7459C25.8863 29.7459 25.9367 29.8238 25.9866 29.919L26.0771 30.0919L26.2781 30.2965L26.4791 30.5009L26.7265 30.601L26.974 30.701L27.2688 30.7396L27.5637 30.7782L27.9379 30.755L28.3122 30.7318L28.7175 30.6259L29.1228 30.5199L29.3403 30.4198C29.46 30.3646 29.672 30.2444 29.8116 30.1525L30.0655 29.9856L30.3021 29.7467C30.4322 29.6156 30.6158 29.4048 30.7099 29.2787C30.8042 29.1526 30.8813 29.0403 30.8813 29.0291C30.8813 29.0178 30.9276 28.9398 30.9842 28.8555C31.0407 28.7714 31.1564 28.5376 31.2413 28.3363C31.3263 28.135 31.4588 27.7725 31.5362 27.5309L31.6767 27.0915L31.7494 26.711C31.7893 26.5017 31.8408 26.1557 31.8637 25.9421L31.9052 25.5539L31.8811 25.2244L31.8572 24.8949L31.7815 24.5652L31.7059 24.2357L31.5834 23.9891L31.4609 23.7424L31.2243 23.4891L30.9878 23.2358L30.7079 23.0898L30.4281 22.9438L30.1198 22.8692L29.8116 22.7947L29.5034 22.7719L29.1953 22.7491L28.852 22.7889L28.5086 22.8287L28.2285 22.9011L27.9483 22.9732L27.7048 23.0871C27.571 23.1495 27.3761 23.2558 27.2719 23.3232C27.1677 23.3905 27.0601 23.4679 27.0329 23.4952C27.0058 23.5226 26.9407 23.5734 26.8884 23.6078L26.7932 23.6708L26.8597 23.3491C26.8964 23.1723 26.9269 23.0071 26.9277 22.9817L26.9292 22.936H26.2644H25.5997L25.4833 23.6775C25.4191 24.0853 25.3179 24.7154 25.2583 25.0779C25.1987 25.4404 25.1086 25.984 25.0585 26.286C25.0083 26.5881 24.9187 27.1236 24.8593 27.476C24.8 27.8283 24.702 28.3886 24.6415 28.7208C24.581 29.0531 24.4924 29.5391 24.4445 29.801C24.3967 30.0627 24.3066 30.5569 24.2445 30.8991C24.1824 31.2416 24.0825 31.7852 24.0224 32.1075C23.9624 32.4296 23.8649 32.9403 23.8056 33.2424C23.7462 33.5444 23.6889 33.8288 23.6779 33.8739L23.6582 33.9564H24.4377ZM27.7939 29.7234L27.4912 29.7417L27.2934 29.7064L27.0954 29.6711L26.8945 29.5785L26.6934 29.4858L26.5531 29.3504L26.4127 29.2151L26.3317 29.032C26.287 28.9313 26.2299 28.7603 26.2045 28.6519L26.1582 28.4549L26.1767 28.1393L26.1954 27.8238L26.2887 27.3295C26.3401 27.0577 26.4323 26.5469 26.4936 26.1946C26.555 25.8422 26.6481 25.3257 26.7002 25.0471L26.7951 24.5403L27.0029 24.3657C27.1173 24.2697 27.2984 24.1409 27.4054 24.0797L27.5999 23.9682L27.8537 23.8889L28.1075 23.8095L28.4338 23.7902L28.7601 23.7709L29.0259 23.8281L29.2916 23.8852L29.4791 23.9724L29.6666 24.0596L29.8238 24.2193L29.9812 24.3789L30.0659 24.5479C30.1126 24.6409 30.1782 24.8229 30.2115 24.9523L30.2723 25.1876L30.2537 25.8834L30.235 26.579L30.142 26.9902C30.0908 27.2164 29.9933 27.5623 29.9254 27.759L29.8019 28.1167L29.6505 28.4062C29.5673 28.5655 29.439 28.7807 29.3654 28.8844C29.2918 28.9881 29.1744 29.1227 29.1045 29.1831C29.0349 29.2437 28.9179 29.3384 28.8448 29.3934L28.7119 29.4936L28.4042 29.5993L28.0965 29.705L27.7939 29.7234ZM35.3228 30.7298L35.7216 30.7344L36.1204 30.6977C36.3399 30.6775 36.6988 30.6354 36.918 30.6042C37.1375 30.573 37.5164 30.5031 37.7602 30.4491L38.2034 30.3506L38.2256 30.1855C38.2377 30.0948 38.2875 29.8247 38.3362 29.5853L38.4247 29.1498L38.4051 29.1301L38.3856 29.1105L38.2501 29.1765C38.1756 29.2128 37.9434 29.2996 37.7343 29.3691L37.3539 29.4956L36.9547 29.5739L36.5555 29.6519L35.921 29.6532L35.2865 29.6543L35.0689 29.5842C34.9493 29.5457 34.7733 29.4751 34.6779 29.4273L34.5044 29.3406L34.3612 29.2099L34.218 29.0792L34.1062 28.8821L33.9944 28.6848L33.9244 28.4375L33.8543 28.1902L33.8539 27.7324L33.8534 27.2745L33.9155 26.8663L33.9778 26.4578L34.5234 26.432L35.0689 26.4063L37.0858 26.4195L39.1026 26.4325L39.1635 26.1717C39.1971 26.0282 39.2483 25.7316 39.2774 25.5127L39.3303 25.1145L39.3314 24.7796L39.3326 24.4446L39.2752 24.1945L39.2177 23.9445L39.1226 23.7789C39.0705 23.6879 38.9784 23.5559 38.9182 23.4856C38.858 23.4154 38.7504 23.3164 38.6792 23.2656C38.6079 23.2148 38.4681 23.1294 38.3684 23.0759L38.1871 22.9786L37.8704 22.9015L37.5536 22.8245L37.1634 22.7868L36.773 22.7491L36.4105 22.773L36.0479 22.7968L35.6128 22.8811L35.1778 22.9656L34.9057 23.0753C34.7562 23.1355 34.5278 23.2458 34.3982 23.32C34.2686 23.3942 34.0892 23.515 33.9995 23.5884C33.9095 23.6618 33.7542 23.8046 33.6541 23.9056C33.554 24.0068 33.4057 24.1881 33.3249 24.309C33.244 24.4299 33.12 24.644 33.0492 24.785C32.9785 24.926 32.8864 25.1236 32.8445 25.2244C32.8026 25.325 32.7264 25.5309 32.6753 25.6819C32.6241 25.833 32.5437 26.1213 32.4966 26.3228C32.4495 26.5241 32.385 26.8555 32.3531 27.0593L32.2952 27.4298L32.2959 27.9746L32.2964 28.5194L32.3515 28.7574C32.3817 28.8883 32.4397 29.0861 32.4802 29.1967C32.5207 29.3075 32.5957 29.4723 32.6468 29.5629C32.6978 29.6535 32.8069 29.7994 32.8891 29.8871C32.9713 29.9748 33.1202 30.108 33.2199 30.1828C33.3195 30.2578 33.4971 30.3632 33.6143 30.4171L33.8275 30.5151L34.1247 30.5877C34.2881 30.6275 34.5349 30.6748 34.673 30.6927C34.811 30.7106 35.1034 30.7274 35.3228 30.7298ZM36.0056 25.5721C35.0019 25.5721 34.1806 25.5649 34.1806 25.556C34.1806 25.5472 34.2235 25.4195 34.2759 25.2722C34.3282 25.125 34.4202 24.906 34.4801 24.7855L34.5893 24.5662L34.8291 24.3254L35.0689 24.0844L35.3047 23.9706C35.4342 23.908 35.6056 23.8398 35.6853 23.8191C35.7651 23.7985 35.9935 23.771 36.1929 23.7582L36.5555 23.7347L36.8341 23.7709L37.1124 23.807L37.3147 23.9005L37.5171 23.9941L37.6281 24.115C37.6891 24.1814 37.7619 24.2792 37.7898 24.3323L37.8404 24.4291L37.8738 24.6436L37.9074 24.8581L37.869 25.2151L37.8308 25.5721H36.0056ZM46.8529 30.73L47.252 30.7344L47.7049 30.6803C47.954 30.6504 48.2857 30.6011 48.442 30.5704C48.5981 30.5399 48.851 30.4792 49.004 30.4357C49.1568 30.392 49.2951 30.3448 49.3113 30.3308C49.3275 30.3168 49.3706 30.1506 49.4073 29.9615C49.4439 29.7726 49.4901 29.519 49.5099 29.3982C49.5295 29.2773 49.5398 29.172 49.5326 29.1641C49.5253 29.1562 49.4986 29.1664 49.4732 29.1867C49.4477 29.2072 49.2698 29.2828 49.0778 29.3548L48.7287 29.4857L48.2315 29.5829L47.7343 29.6802L47.3117 29.6657L46.889 29.6511L46.6488 29.567L46.4087 29.4829L46.2232 29.3191L46.0377 29.1551L45.9145 28.9288L45.7916 28.7025L45.7328 28.3996L45.6743 28.0969L45.6747 27.7041L45.675 27.3113L45.7462 26.8353L45.8175 26.3593L45.8928 26.103C45.9343 25.962 45.9812 25.7973 45.997 25.7369C46.013 25.6764 46.0794 25.5035 46.1449 25.3524C46.2102 25.2014 46.3269 24.968 46.4041 24.8337L46.5444 24.5897L46.7168 24.4093L46.8892 24.2289L47.0716 24.1147L47.2543 24.0003L47.4887 23.9274C47.6176 23.8872 47.8455 23.8352 47.995 23.8118L48.267 23.7689L48.6657 23.7892L49.0646 23.8093L49.5359 23.9047L50.0073 23.9998L50.199 24.072C50.3044 24.1117 50.3952 24.1443 50.401 24.1443C50.4065 24.1443 50.4318 24.0083 50.4571 23.8422C50.4824 23.6761 50.5274 23.4028 50.5571 23.2349C50.5869 23.0668 50.604 22.9222 50.5951 22.9134C50.5865 22.9045 50.4448 22.8818 50.2804 22.8629C50.116 22.8441 49.6691 22.8105 49.2874 22.7882L48.5933 22.748L48.1038 22.7859L47.6144 22.8239L47.2517 22.9007L46.8892 22.9777L46.6556 23.072C46.5272 23.1238 46.3391 23.2175 46.2376 23.28C46.1361 23.3426 46.0071 23.4266 45.9506 23.4668C45.8942 23.5072 45.7231 23.6643 45.5703 23.8161L45.2927 24.0921L45.1375 24.3214C45.0523 24.4475 44.9049 24.7104 44.8098 24.9058L44.6371 25.261L44.5047 25.6453C44.4319 25.8568 44.3302 26.2027 44.2788 26.4142L44.1852 26.7987L44.1513 27.1465L44.1174 27.4943L44.1177 27.952L44.1181 28.4096L44.1523 28.6758L44.1865 28.9421L44.2951 29.216L44.4037 29.4898L44.5292 29.6878L44.6546 29.8857L44.854 30.084L45.0536 30.2822L45.2644 30.3949L45.4755 30.5075L45.7527 30.5853C45.905 30.6279 46.1253 30.677 46.2421 30.6942C46.3589 30.7114 46.634 30.7276 46.8535 30.73H46.8529ZM52.817 30.7165L53.3064 30.7022L53.6146 30.6226L53.9228 30.5429L54.1223 30.4478C54.232 30.3956 54.4114 30.2922 54.5211 30.2182C54.6307 30.1442 54.8006 30.0035 54.8984 29.9057C54.9962 29.8077 55.1412 29.6407 55.2206 29.5345C55.3001 29.4282 55.3699 29.346 55.3758 29.352C55.3817 29.358 55.3633 29.5272 55.3351 29.7282C55.307 29.9293 55.2836 30.1968 55.2832 30.3226L55.2825 30.5514H55.9479H56.6134L56.6338 30.0297L56.654 29.508L56.749 28.8306C56.8013 28.458 56.8856 27.9061 56.9365 27.6041C56.9874 27.3021 57.0757 26.7914 57.133 26.4691C57.1902 26.1469 57.2808 25.6444 57.3343 25.3524L57.4317 24.8216L57.4351 24.3631L57.4382 23.9045L57.3356 23.6926L57.2328 23.4806L57.0937 23.3456L56.9543 23.2106L56.7259 23.0937L56.4972 22.9767L56.1565 22.9001L55.8157 22.8236L55.3467 22.7876L54.8776 22.7516L54.2734 22.7894C53.9409 22.8101 53.4734 22.851 53.234 22.8805L52.7989 22.9337L52.5024 22.9348L52.2059 22.936L52.1627 23.1466C52.139 23.2623 52.073 23.5374 52.0162 23.7579C51.9592 23.9784 51.918 24.164 51.9245 24.1705C51.9309 24.177 52.0895 24.1406 52.2769 24.0897C52.4642 24.0387 52.8624 23.9551 53.1616 23.9036L53.7054 23.8101L54.1948 23.7898L54.6843 23.7693L54.9996 23.8252L55.3149 23.881L55.5253 23.9859L55.7358 24.0908L55.8536 24.2682L55.9715 24.4454L55.9699 24.725L55.9681 25.0047L55.9057 25.3115L55.8431 25.6184L54.5385 25.6231L53.2339 25.6278L52.807 25.746C52.5722 25.811 52.3122 25.8974 52.2292 25.9378C52.1462 25.9784 52.0632 26.0115 52.0446 26.0115C52.0262 26.0115 51.8866 26.0897 51.7342 26.1854L51.4574 26.3591L51.2394 26.5789C51.1194 26.6998 50.9662 26.881 50.8989 26.9818C50.8315 27.0824 50.7221 27.2927 50.6558 27.4492L50.5351 27.7335L50.4797 28.0531L50.4243 28.3729V28.7083V29.0439L50.4771 29.3232L50.5301 29.6025L50.6282 29.7846C50.6822 29.8847 50.7814 30.0315 50.8485 30.1107L50.9706 30.2547L51.1873 30.3877L51.4042 30.5208L51.6525 30.5916C51.789 30.6306 51.9968 30.6779 52.1143 30.6967L52.3278 30.7306L52.8173 30.7165H52.817ZM53.2702 29.6926L52.9801 29.708L52.788 29.6585C52.6824 29.6314 52.522 29.5708 52.4317 29.5239L52.2677 29.4387L52.178 29.3311C52.1287 29.2719 52.0534 29.1558 52.0107 29.0729L51.933 28.9221L51.9178 28.5703L51.9025 28.2183L51.9639 28.0048C51.9977 27.8874 52.0771 27.6835 52.1402 27.552L52.255 27.3126L52.4749 27.0923L52.6946 26.8719L52.928 26.7584L53.1614 26.645L53.4514 26.5753L53.7415 26.5057H54.648H55.5545L55.6118 26.5297L55.6691 26.5536L55.6209 26.8409C55.5943 26.9989 55.531 27.2847 55.4801 27.476C55.4293 27.6674 55.3396 27.9485 55.2808 28.1009C55.2219 28.2533 55.1737 28.388 55.1737 28.4003C55.1737 28.4126 55.1141 28.5236 55.0412 28.647L54.9089 28.8716L54.6915 29.0892C54.572 29.2087 54.4608 29.3065 54.4447 29.3065C54.4288 29.3065 54.3555 29.3478 54.282 29.3982L54.1483 29.4896L53.8542 29.5836L53.5602 29.6774L53.2702 29.6926ZM65.072 30.7295L65.4164 30.7339L65.7428 30.6804C65.9223 30.651 66.1506 30.6036 66.2504 30.5751C66.35 30.5466 66.5296 30.4727 66.6491 30.4109L66.8668 30.2983L67.054 30.1319L67.241 29.9655L67.4382 29.7002C67.5466 29.5542 67.6447 29.4101 67.6563 29.3798L67.6773 29.3248L67.659 29.508C67.649 29.6086 67.6265 29.7734 67.6088 29.8741C67.5913 29.9748 67.5663 30.1684 67.5531 30.3043L67.529 30.5514H68.2404H68.9516V30.3043V30.0572L69.0599 29.1235C69.1195 28.61 69.2076 27.9264 69.2557 27.6041C69.3038 27.2818 69.3782 26.8207 69.4209 26.579C69.4635 26.3373 69.5391 25.9007 69.5886 25.6088C69.6384 25.3168 69.7281 24.806 69.7881 24.4738C69.848 24.1415 69.9441 23.6143 70.0015 23.3022C70.0588 22.9901 70.1481 22.504 70.1996 22.2221C70.2512 21.9402 70.3436 21.4459 70.405 21.1238C70.4665 20.8016 70.556 20.3485 70.6042 20.1168C70.6525 19.8854 70.692 19.6834 70.6919 19.6684V19.6409H69.9159H69.1399L69.117 19.8698C69.1044 19.9956 69.0449 20.4116 68.985 20.7943C68.925 21.1768 68.8272 21.7864 68.7676 22.1488C68.708 22.5113 68.6507 22.8628 68.6401 22.93L68.6207 23.052L68.5595 23.0257C68.5259 23.0113 68.3432 22.9601 68.1538 22.912L67.8095 22.8247L67.3381 22.7877L66.8667 22.7506L66.4678 22.7881L66.0691 22.8257L65.7065 22.9183L65.3439 23.0108L64.9995 23.1804L64.6549 23.3501L64.4012 23.5397L64.1474 23.7294L63.9282 23.9668C63.8076 24.0973 63.6335 24.3132 63.5411 24.4466L63.3734 24.689L63.1762 25.1031C63.0679 25.3309 62.936 25.6325 62.8832 25.7735C62.8303 25.9145 62.7372 26.2269 62.676 26.4678L62.5651 26.906L62.5104 27.4748L62.4558 28.0434L62.4967 28.5011L62.5379 28.9588L62.5863 29.1235C62.6132 29.2142 62.6693 29.3756 62.7115 29.4822L62.788 29.6764L62.9276 29.867L63.0673 30.0579L63.2266 30.1897L63.386 30.3215L63.6035 30.4307C63.7232 30.4906 63.9239 30.5682 64.0495 30.6029C64.1751 30.6376 64.3791 30.6794 64.5028 30.6956C64.6264 30.7119 64.8824 30.7272 65.072 30.7295ZM65.6902 29.6909L65.4164 29.7054L65.2317 29.6718C65.1301 29.6535 64.9675 29.6038 64.8703 29.5618L64.6937 29.4855L64.545 29.3624L64.3965 29.2395L64.286 29.0259L64.1756 28.8123L64.1251 28.5744L64.075 28.3363L64.0792 27.8604L64.0834 27.3844L64.1419 26.9633L64.2003 26.5424L64.2912 26.2495C64.3411 26.0884 64.3823 25.9364 64.3825 25.9117C64.383 25.8871 64.4321 25.7553 64.4922 25.6189C64.5522 25.4824 64.6524 25.272 64.7149 25.1511C64.7774 25.0302 64.8943 24.842 64.9745 24.7326C65.0549 24.6232 65.1981 24.4584 65.2926 24.3663C65.3871 24.2745 65.5373 24.1537 65.6267 24.0983L65.789 23.9975L66.0741 23.8978L66.3591 23.7981L66.9574 23.7978H67.5556L67.9 23.8944C68.0896 23.9474 68.2907 24.009 68.3471 24.0311L68.4496 24.0714L68.4297 24.1719C68.4187 24.2272 68.3755 24.4701 68.3339 24.7117C68.2923 24.9533 68.2101 25.4147 68.1514 25.7369C68.0928 26.0591 68.0027 26.5452 67.9511 26.817C67.8997 27.0888 67.8251 27.4348 67.7854 27.5858C67.7458 27.7368 67.6897 27.946 67.661 28.0506C67.6322 28.1552 67.5639 28.3366 67.509 28.4534C67.4541 28.5703 67.358 28.74 67.2955 28.8306C67.233 28.9212 67.1274 29.0468 67.0607 29.1095C66.9938 29.1725 66.8496 29.2839 66.7399 29.3575L66.5405 29.4914L66.2523 29.5838L65.964 29.6762L65.6902 29.6909ZM12.3283 30.5514H13.2091L13.2724 30.1579C13.3071 29.9414 13.3751 29.5253 13.4233 29.2334C13.4715 28.9415 13.5613 28.3976 13.6226 28.0252C13.6841 27.6526 13.7763 27.1006 13.8275 26.7987C13.8786 26.4966 13.9599 26.0281 14.008 25.7575C14.0562 25.4867 14.1048 25.2561 14.1159 25.2448L14.1363 25.2244H16.5051H18.8739L18.9002 25.2509L18.9266 25.2775L18.8854 25.4888C18.8629 25.6052 18.7961 25.9638 18.737 26.286C18.6779 26.6082 18.5786 27.152 18.5162 27.4943C18.454 27.8366 18.3639 28.3227 18.3161 28.5744C18.2682 28.8261 18.1714 29.3532 18.1009 29.7459C18.0306 30.1386 17.9731 30.4804 17.9733 30.5057L17.9737 30.5514H18.8582H19.7428L19.7819 30.3226C19.8036 30.1968 19.8381 29.9702 19.859 29.8192C19.8797 29.6681 19.93 29.3468 19.9704 29.1052C20.0109 28.8637 20.0917 28.3857 20.1501 28.0434C20.2085 27.7012 20.3063 27.1163 20.3674 26.7437C20.4285 26.3711 20.519 25.8275 20.5688 25.5356C20.6183 25.2435 20.7069 24.7493 20.7653 24.4372C20.8238 24.125 20.9212 23.5979 20.9819 23.2655C21.0425 22.9334 21.1331 22.4308 21.1835 22.1488C21.2339 21.867 21.3257 21.3562 21.3876 21.0139C21.4495 20.6716 21.5276 20.2721 21.5612 20.126L21.6222 19.8606H20.7266H19.8309L19.8066 20.0346C19.7933 20.1301 19.75 20.398 19.7105 20.6295C19.6709 20.8611 19.5992 21.2729 19.5509 21.5447C19.5025 21.8167 19.4143 22.3356 19.3547 22.6981C19.2951 23.0605 19.2192 23.5403 19.186 23.7644L19.1255 24.1716L17.8108 24.1985L16.4959 24.2253L15.3948 24.1989C14.7891 24.1844 14.2902 24.1696 14.286 24.1662C14.2819 24.1626 14.3025 24.0204 14.3318 23.85C14.3612 23.6796 14.4166 23.3835 14.4551 23.1923C14.4936 23.001 14.5665 22.6221 14.6171 22.3502C14.6678 22.0784 14.7251 21.7407 14.7447 21.5997C14.7641 21.4588 14.805 21.224 14.8354 21.0779C14.8659 20.932 14.9236 20.6244 14.9637 20.3946C15.0038 20.1648 15.0465 19.9505 15.0588 19.9187L15.0807 19.8606H14.1923H13.3039L13.2471 20.181C13.2157 20.3572 13.174 20.6084 13.1543 20.7393C13.1346 20.8702 13.0684 21.2903 13.0072 21.6729C12.9461 22.0555 12.8557 22.6239 12.8065 22.936C12.7573 23.2482 12.6678 23.8166 12.6075 24.1991C12.5471 24.5818 12.4477 25.1748 12.3863 25.5171C12.325 25.8596 12.2363 26.3456 12.189 26.5973C12.1419 26.849 12.0521 27.3268 11.9893 27.659C11.9267 27.9914 11.835 28.4609 11.786 28.7025C11.7368 28.9441 11.6826 29.2242 11.6654 29.3248C11.6481 29.4255 11.592 29.716 11.5406 29.9702C11.4892 30.2244 11.4472 30.4591 11.4472 30.4919V30.5514H12.3283ZM22.0807 30.5514H22.8606L22.8825 30.4935C22.8947 30.4615 22.9046 30.378 22.9046 30.3079C22.9046 30.2376 22.9537 29.8723 23.0135 29.4962C23.0735 29.12 23.1725 28.5075 23.2337 28.135C23.2948 27.7625 23.385 27.2188 23.4342 26.9268C23.4835 26.6348 23.5709 26.1489 23.6286 25.8466C23.6863 25.5447 23.775 25.0751 23.8256 24.8033C23.8761 24.5315 23.9756 24.0142 24.0466 23.6539C24.1176 23.2936 24.1845 22.9845 24.1953 22.9668L24.215 22.9346L23.4264 22.9445L22.6378 22.9543L22.5719 23.4303C22.5359 23.6921 22.4569 24.2111 22.3965 24.5835C22.3361 24.9561 22.2447 25.5246 22.1934 25.8466C22.1421 26.1689 22.0528 26.6878 21.9948 27C21.9367 27.3121 21.8479 27.7898 21.7972 28.0617C21.7466 28.3337 21.6557 28.8114 21.5953 29.1235C21.5348 29.4357 21.4538 29.8475 21.4151 30.0388C21.3763 30.2302 21.3348 30.4237 21.3227 30.469L21.3008 30.5514H22.0807ZM40.3209 30.5514H41.095L41.1182 30.2206C41.1311 30.0388 41.1748 29.6721 41.2155 29.406C41.2563 29.1398 41.3399 28.6091 41.401 28.2266C41.4623 27.8439 41.576 27.2071 41.6538 26.8113C41.7318 26.4156 41.8198 26.0222 41.8494 25.9372C41.8792 25.8521 41.9035 25.76 41.9035 25.7325C41.9035 25.7048 41.9617 25.5545 42.0328 25.3983C42.1039 25.2422 42.2365 25.0032 42.3275 24.8671L42.4928 24.6196L42.7139 24.4127L42.9351 24.206L43.2079 24.0744L43.4807 23.9428L43.8977 23.9451L44.3146 23.9473L44.5196 24.0091C44.6323 24.0431 44.7343 24.0709 44.7462 24.0709C44.7581 24.0709 44.7678 24.0321 44.7678 23.9845C44.7678 23.937 44.8086 23.6958 44.8585 23.4486C44.9082 23.2014 44.9491 22.9888 44.9491 22.976C44.9491 22.9632 44.8309 22.9165 44.6863 22.8721C44.5417 22.8278 44.3418 22.7813 44.2421 22.7688L44.0608 22.7462L43.8252 22.7883C43.6955 22.8114 43.5028 22.8625 43.3969 22.9019C43.2909 22.9412 43.116 23.0303 43.0081 23.1C42.9003 23.1698 42.7325 23.3055 42.6354 23.4017C42.538 23.498 42.3745 23.6921 42.2719 23.8331C42.1693 23.974 42.062 24.1224 42.0335 24.1626L41.9816 24.2357L42.0131 24.0894C42.0304 24.0088 42.0787 23.7451 42.1203 23.5036C42.1619 23.2619 42.2049 23.0352 42.2154 23.0002L42.2347 22.936H41.5434H40.852V23.0243C40.852 23.0728 40.8111 23.3652 40.7614 23.6741C40.7115 23.9831 40.6292 24.4994 40.5786 24.8216C40.528 25.1438 40.4381 25.704 40.3789 26.0664C40.3197 26.4289 40.2298 26.9479 40.1791 27.2196C40.1284 27.4915 40.0385 27.9693 39.9791 28.2815C39.9199 28.5935 39.8213 29.1044 39.7604 29.4164C39.6993 29.7286 39.6262 30.0971 39.5981 30.2356C39.5698 30.3739 39.5468 30.5016 39.5468 30.5192V30.5514H40.3209ZM58.6969 30.5514H59.4884V30.3069V30.0621L59.5795 29.4555C59.6298 29.122 59.7125 28.5935 59.7635 28.2815C59.8146 27.9693 59.878 27.5739 59.9047 27.4027C59.9314 27.2316 60.0021 26.8609 60.0618 26.579C60.1217 26.297 60.1963 25.9923 60.2277 25.9016C60.2592 25.811 60.2851 25.7159 60.2855 25.6904C60.2859 25.6648 60.3533 25.5003 60.4354 25.3249L60.5848 25.0057L60.782 24.7412L60.9791 24.4769L61.1947 24.3131C61.3133 24.223 61.5041 24.1036 61.6187 24.0475L61.827 23.9456L62.2801 23.9488L62.7333 23.9521L62.9118 24.0098L63.0902 24.0677L63.1203 24.0489L63.1503 24.0301L63.152 23.9133C63.1527 23.849 63.1915 23.61 63.2381 23.382L63.3229 22.9675L63.2276 22.9298C63.1752 22.9091 63.0508 22.8662 62.951 22.8345L62.7697 22.7768L62.4434 22.7778L62.1171 22.7785L61.8511 22.8731L61.5851 22.9675L61.3855 23.0891L61.1859 23.2107L60.9262 23.4853L60.6665 23.7598L60.5271 23.9729C60.4504 24.0901 60.3829 24.1806 60.377 24.1742C60.3712 24.1679 60.4129 23.9237 60.4697 23.6317C60.5265 23.3397 60.5737 23.0638 60.5745 23.0185L60.5761 22.936H59.9053H59.2346V22.9594C59.2346 22.9722 59.2011 23.207 59.1603 23.4811C59.1194 23.7553 59.0372 24.2843 58.9779 24.6569C58.9184 25.0294 58.821 25.6307 58.7612 25.9933C58.7015 26.3557 58.6114 26.8747 58.561 27.1466C58.5107 27.4183 58.4213 27.8962 58.3623 28.2082C58.3034 28.5204 58.2065 29.023 58.1472 29.325C58.0878 29.627 58.0089 30.0266 57.9722 30.2128L57.9053 30.5514H58.6969ZM23.6143 21.6173L23.8343 21.618L24.0093 21.5578L24.1844 21.4976L24.3392 21.339L24.4942 21.1804L24.5756 20.9689L24.6573 20.7576L24.6601 20.4463L24.663 20.1353L24.5906 20.0137L24.518 19.8922L24.3918 19.8133L24.2655 19.7343H23.993H23.7204L23.5348 19.8183L23.3492 19.9021L23.2415 20.0186L23.1339 20.1353L23.0492 20.3366L22.9646 20.538L22.9486 20.8516L22.9327 21.1653L23.0113 21.3212L23.0902 21.4771L23.2422 21.5467L23.3941 21.6163L23.6143 21.6173Z" fill="#B3131B"/>
</svg>
