<svg width="47" height="27" viewBox="0 0 47 27" fill="none" xmlns="http://www.w3.org/2000/svg">
<path d="M28.1969 17.8618H19.4475V2.13794H28.197L28.1969 17.8618Z" fill="#EEEEEE"/>
<path d="M39.9998 10C39.9998 15.5229 35.5234 20 30.0011 20C27.7591 20.0033 25.5815 19.25 23.8208 17.8619C26.147 16.0309 27.6405 13.1897 27.6405 10C27.6405 6.81027 26.147 3.96914 23.8208 2.13809C25.5815 0.750083 27.759 -0.00324341 30.001 1.0497e-05C35.5232 1.0497e-05 39.9997 4.47709 39.9997 10" fill="white"/>
<path d="M46.5152 26.3775V26.4946H46.6086C46.6262 26.4949 46.6435 26.4898 46.6587 26.4797C46.6648 26.4746 46.6697 26.4679 46.673 26.4601C46.6763 26.4522 46.6778 26.4436 46.6775 26.4349C46.6778 26.4263 46.6763 26.4178 46.673 26.4102C46.6697 26.4025 46.6648 26.396 46.6587 26.3912C46.6436 26.3806 46.6262 26.3754 46.6086 26.3763H46.5152V26.3775ZM46.6096 26.2946C46.6497 26.2917 46.6893 26.3052 46.7218 26.3327C46.7349 26.3451 46.7452 26.361 46.752 26.379C46.7589 26.397 46.762 26.4167 46.7612 26.4363C46.7618 26.4533 46.7592 26.4701 46.7538 26.4858C46.7484 26.5016 46.7401 26.5157 46.7296 26.5274C46.7045 26.5529 46.6731 26.5682 46.6399 26.571L46.7652 26.7379H46.6687L46.5535 26.5722H46.5162V26.7379H46.4355V26.2949H46.6109L46.6096 26.2946ZM46.5846 26.8908C46.6269 26.8912 46.6688 26.8813 46.7076 26.8615C46.7449 26.8427 46.7789 26.8157 46.8077 26.7821C46.8366 26.7486 46.8597 26.7088 46.8756 26.665C46.9085 26.5722 46.9085 26.4679 46.8756 26.3751C46.8594 26.3315 46.8364 26.2918 46.8077 26.258C46.7789 26.2244 46.7449 26.1975 46.7076 26.1786C46.6685 26.16 46.6267 26.1506 46.5846 26.1511C46.5417 26.1507 46.4991 26.16 46.4593 26.1786C46.4211 26.1971 46.3863 26.2241 46.3569 26.258C46.3126 26.3111 46.2826 26.3783 46.2707 26.4512C46.2588 26.5241 46.2655 26.5995 46.29 26.6679C46.3053 26.7119 46.328 26.7517 46.3569 26.7851C46.3863 26.819 46.4211 26.8459 46.4593 26.8644C46.4989 26.8842 46.5415 26.8941 46.5846 26.8937M46.5846 26.0445C46.6947 26.0444 46.8004 26.0949 46.8789 26.1851C46.9167 26.2284 46.9469 26.28 46.9676 26.3371C46.989 26.3956 47 26.4586 47 26.5223C47 26.5859 46.989 26.6489 46.9676 26.7075C46.9464 26.7642 46.9163 26.8157 46.8789 26.8594C46.8405 26.9025 46.7958 26.9372 46.7469 26.9619C46.6956 26.9874 46.6403 27.0004 46.5846 27C46.5282 27.0005 46.4722 26.9875 46.4203 26.9619C46.3708 26.9378 46.3257 26.903 46.2872 26.8594C46.2498 26.8141 46.2201 26.7608 46.1998 26.7025C46.1784 26.644 46.1674 26.5809 46.1674 26.5173C46.1674 26.4536 46.1784 26.3906 46.1998 26.3321C46.2205 26.2751 46.2506 26.2234 46.2885 26.1801C46.3264 26.1358 46.3717 26.1009 46.4215 26.0776C46.4735 26.052 46.5294 26.0391 46.5858 26.0396M8.23083 24.3336C8.23083 23.4889 8.70424 22.7949 9.47797 22.7949C10.2174 22.7949 10.7164 23.459 10.7164 24.3336C10.7164 25.2083 10.2174 25.8724 9.47797 25.8724C8.70424 25.8724 8.23083 25.1784 8.23083 24.3336ZM11.5592 24.3336V21.9296H10.6653V22.5153C10.3817 22.0825 9.95163 21.811 9.36676 21.811C8.21454 21.811 7.31031 22.8675 7.31031 24.3348C7.31031 25.8021 8.21404 26.8586 9.36676 26.8586C9.95138 26.8586 10.3817 26.5868 10.6653 26.1543V26.7379H11.5582V24.3336H11.5592ZM41.7653 24.3336C41.7653 23.4889 42.2387 22.7949 43.0127 22.7949C43.7529 22.7949 44.2511 23.459 44.2511 24.3336C44.2511 25.2083 43.7529 25.8724 43.0127 25.8724C42.239 25.8724 41.7653 25.1784 41.7653 24.3336ZM45.0947 24.3336V20H44.2V22.5153C43.9164 22.0825 43.4864 21.811 42.9015 21.811C41.7493 21.811 40.845 22.8675 40.845 24.3348C40.845 25.8021 41.7488 26.8586 42.9015 26.8586C43.4864 26.8586 43.9164 26.5868 44.2 26.1543V26.7379H45.0947V24.3336ZM22.6546 22.7454C23.2307 22.7454 23.6006 23.1677 23.6951 23.9111H21.562C21.6574 23.2171 22.0178 22.7454 22.6548 22.7454M22.6726 21.8084C21.4678 21.8084 20.6249 22.8333 20.6249 24.3322C20.6249 25.8604 21.5016 26.8559 22.7325 26.8559C23.3516 26.8559 23.9187 26.6753 24.4177 26.1825L23.9796 25.408C23.6349 25.7301 23.1961 25.9107 22.7836 25.9107C22.2074 25.9107 21.6829 25.5989 21.5539 24.7336H24.6066C24.6153 24.6036 24.6243 24.4724 24.6243 24.3319C24.6153 22.8336 23.8228 21.8081 22.6721 21.8081M33.4653 24.3319C33.4653 23.4871 33.9388 22.7931 34.7125 22.7931C35.4519 22.7931 35.9509 23.4572 35.9509 24.3319C35.9509 25.2065 35.4519 25.8706 34.7125 25.8706C33.9388 25.8706 33.4651 25.1766 33.4651 24.3319M36.7935 24.3319V21.9296H35.9V22.5153C35.6155 22.0825 35.1864 21.811 34.6015 21.811C33.4493 21.811 32.5451 22.8675 32.5451 24.3348C32.5451 25.8021 33.4488 26.8586 34.6015 26.8586C35.1864 26.8586 35.6155 26.5868 35.9 26.1543V26.7379H36.7937V24.3336L36.7935 24.3319ZM28.4169 24.3319C28.4169 25.7898 29.2851 26.8556 30.6101 26.8556C31.2293 26.8556 31.6418 26.6946 32.0879 26.2826L31.6586 25.4378C31.323 25.7198 30.9705 25.8706 30.5815 25.8706C29.8679 25.8604 29.3432 25.2572 29.3432 24.3319C29.3432 23.4066 29.8679 22.8037 30.5815 22.7931C30.9695 22.7931 31.322 22.9439 31.6586 23.2259L32.0879 22.3812C31.6411 21.9692 31.2285 21.8081 30.6101 21.8081C29.2851 21.8081 28.4169 22.8737 28.4169 24.3319ZM39.9415 21.8081C39.4258 21.8081 39.0899 22.0901 38.8577 22.5123V21.9296H37.9718V26.7353H38.8667V24.0414C38.8667 23.2461 39.159 22.8043 39.7434 22.8043C39.9348 22.801 40.1248 22.8421 40.3025 22.9252L40.578 21.9402C40.3801 21.8491 40.1221 21.809 39.941 21.809M15.979 22.3118C15.5489 21.9803 14.9563 21.809 14.3025 21.809C13.261 21.809 12.5905 22.3926 12.5905 23.3474C12.5905 24.131 13.0897 24.6144 14.0089 24.7652L14.4312 24.8355C14.9214 24.916 15.1529 25.0668 15.1529 25.3383C15.1529 25.7099 14.8273 25.9218 14.2158 25.9218C13.5966 25.9218 13.1498 25.6905 12.8485 25.4191L12.4284 26.234C12.9186 26.6562 13.5378 26.8577 14.2083 26.8577C15.3956 26.8577 16.0837 26.2041 16.0837 25.2891C16.0837 24.4443 15.5421 24.0025 14.6474 23.8517L14.2261 23.7802C13.8391 23.7217 13.529 23.6306 13.529 23.3085C13.529 22.9571 13.8213 22.7457 14.3118 22.7457C14.8365 22.7457 15.3445 22.977 15.5935 23.1577L15.9805 22.3129L15.979 22.3118ZM27.5139 21.8099C26.9982 21.8099 26.6623 22.0919 26.4311 22.5141V21.9296H25.5451V26.7353H26.4391V24.0414C26.4391 23.2461 26.7314 22.8043 27.3158 22.8043C27.5071 22.801 27.6971 22.8421 27.8748 22.9252L28.1504 21.9402C27.9525 21.8491 27.6945 21.809 27.5134 21.809M19.8852 21.9296H18.4234V20.4717H17.5197V21.9296H16.6858V22.8848H17.5197V25.0771C17.5197 26.1921 17.8899 26.8562 18.9474 26.8562C19.3354 26.8562 19.7823 26.7157 20.0658 26.4846L19.8076 25.5898C19.5408 25.7705 19.2485 25.8615 19.0161 25.8615C18.5692 25.8615 18.4234 25.5394 18.4234 25.0572V22.8857H19.8852V21.9296ZM6.51979 26.7365V23.7205C6.51979 22.5847 5.9006 21.8204 4.90243 21.8102C4.37767 21.7999 3.83638 21.9908 3.4574 22.6652C3.17385 22.1323 2.72699 21.8102 2.09879 21.8102C1.65969 21.8102 1.23062 21.961 0.89472 22.5238V21.9296H0V26.7353H0.901734V24.0707C0.901734 23.2365 1.29749 22.7931 1.90867 22.7931C2.50231 22.7931 2.80264 23.2455 2.80264 24.0601V26.7347H3.70638V24.0701C3.70638 23.2359 4.11892 22.7926 4.71231 22.7926C5.32273 22.7926 5.61404 23.245 5.61404 24.0596V26.7341L6.51979 26.7365Z" fill="#231F20"/>
<path d="M20.0021 10C20.0021 6.81043 21.4956 3.96914 23.8211 2.13809C22.0608 0.750042 19.8835 -0.00330147 17.6418 1.08764e-05C12.1195 1.08764e-05 7.64307 4.47709 7.64307 10C7.64307 15.5229 12.1195 20 17.6418 20C19.8836 20.0033 22.0609 19.25 23.8213 17.8619C21.4959 16.0312 20.0021 13.1897 20.0021 10Z" fill="#9E9E9E"/>
</svg>
