<svg width="364" height="234" viewBox="0 0 364 234" fill="none" xmlns="http://www.w3.org/2000/svg">
<g filter="url(#filter0_b_2502_189)">
<rect x="2" y="2" width="360" height="230" rx="15.1928" fill="url(#paint0_linear_2502_189)"/>
<rect x="1.36697" y="1.36697" width="361.266" height="231.266" rx="15.8259" stroke="url(#paint1_radial_2502_189)" stroke-width="1.26607"/>
<rect x="1.36697" y="1.36697" width="361.266" height="231.266" rx="15.8259" stroke="url(#paint2_linear_2502_189)" stroke-opacity="0.2" stroke-width="1.26607"/>
<rect x="1.36697" y="1.36697" width="361.266" height="231.266" rx="15.8259" stroke="url(#paint3_linear_2502_189)" stroke-width="1.26607"/>
</g>
<mask id="mask0_2502_189" style="mask-type:alpha" maskUnits="userSpaceOnUse" x="2" y="2" width="360" height="230">
<rect x="2" y="2" width="360" height="230" rx="15.4011" fill="#16084C"/>
</mask>
<g mask="url(#mask0_2502_189)">
<g filter="url(#filter1_f_2502_189)">
<path d="M402.225 12.5676C424.588 58.7207 364.873 134.582 268.849 182.009C172.825 229.435 76.8537 230.468 54.4911 184.315C32.1285 138.162 91.8429 62.3002 187.867 14.8736C283.891 -32.5531 379.863 -33.5855 402.225 12.5676Z" fill="#DCEC25" fill-opacity="0.57"/>
</g>
<g filter="url(#filter2_f_2502_189)">
<path d="M287.225 -18.4326C309.588 27.7204 249.873 103.582 153.849 151.008C57.8252 198.435 -38.1463 199.467 -60.5089 153.314C-82.8715 107.161 -23.1571 31.2999 72.8671 -16.1267C168.891 -63.5533 264.863 -64.5857 287.225 -18.4326Z" fill="#DF2929" fill-opacity="0.6"/>
</g>
</g>
<defs>
<filter id="filter0_b_2502_189" x="-22.1752" y="-22.1752" width="408.35" height="278.35" filterUnits="userSpaceOnUse" color-interpolation-filters="sRGB">
<feFlood flood-opacity="0" result="BackgroundImageFix"/>
<feGaussianBlur in="BackgroundImageFix" stdDeviation="11.4545"/>
<feComposite in2="SourceAlpha" operator="in" result="effect1_backgroundBlur_2502_189"/>
<feBlend mode="normal" in="SourceGraphic" in2="effect1_backgroundBlur_2502_189" result="shape"/>
</filter>
<filter id="filter1_f_2502_189" x="-6.0303" y="-77.2119" width="468.777" height="351.306" filterUnits="userSpaceOnUse" color-interpolation-filters="sRGB">
<feFlood flood-opacity="0" result="BackgroundImageFix"/>
<feBlend mode="normal" in="SourceGraphic" in2="BackgroundImageFix" result="shape"/>
<feGaussianBlur stdDeviation="27.9144" result="effect1_foregroundBlur_2502_189"/>
</filter>
<filter id="filter2_f_2502_189" x="-121.03" y="-108.212" width="468.777" height="351.306" filterUnits="userSpaceOnUse" color-interpolation-filters="sRGB">
<feFlood flood-opacity="0" result="BackgroundImageFix"/>
<feBlend mode="normal" in="SourceGraphic" in2="BackgroundImageFix" result="shape"/>
<feGaussianBlur stdDeviation="27.9144" result="effect1_foregroundBlur_2502_189"/>
</filter>
<linearGradient id="paint0_linear_2502_189" x1="2" y1="2" x2="130.405" y2="324.275" gradientUnits="userSpaceOnUse">
<stop stop-color="white" stop-opacity="0.4"/>
<stop offset="1" stop-color="white" stop-opacity="0"/>
</linearGradient>
<radialGradient id="paint1_radial_2502_189" cx="0" cy="0" r="1" gradientUnits="userSpaceOnUse" gradientTransform="translate(2 2) rotate(32.5741) scale(427.2 269.348)">
<stop stop-color="#8E9128" stop-opacity="0.7"/>
<stop offset="0.614583" stop-color="#B691FF" stop-opacity="0.4"/>
<stop offset="1" stop-color="white" stop-opacity="0"/>
</radialGradient>
<linearGradient id="paint2_linear_2502_189" x1="351.951" y1="228.167" x2="316.94" y2="84.1868" gradientUnits="userSpaceOnUse">
<stop stop-color="#ECECEC" stop-opacity="0.32"/>
<stop offset="0.140625" stop-color="#F9FFF5"/>
<stop offset="1" stop-color="white" stop-opacity="0"/>
</linearGradient>
<linearGradient id="paint3_linear_2502_189" x1="357.631" y1="3.74243" x2="323.401" y2="148.648" gradientUnits="userSpaceOnUse">
<stop stop-color="#979A11"/>
<stop offset="1" stop-color="white" stop-opacity="0"/>
</linearGradient>
</defs>
</svg>
