<svg width="364" height="234" viewBox="0 0 364 234" fill="none" xmlns="http://www.w3.org/2000/svg">
<g filter="url(#filter0_b_2502_549)">
<rect x="2" y="2" width="360" height="230" rx="15.1928" fill="url(#paint0_linear_2502_549)"/>
<rect x="1.36697" y="1.36697" width="361.266" height="231.266" rx="15.8259" stroke="url(#paint1_radial_2502_549)" stroke-width="1.26607"/>
<rect x="1.36697" y="1.36697" width="361.266" height="231.266" rx="15.8259" stroke="url(#paint2_linear_2502_549)" stroke-opacity="0.2" stroke-width="1.26607"/>
<rect x="1.36697" y="1.36697" width="361.266" height="231.266" rx="15.8259" stroke="url(#paint3_linear_2502_549)" stroke-width="1.26607"/>
</g>
<mask id="mask0_2502_549" style="mask-type:alpha" maskUnits="userSpaceOnUse" x="2" y="2" width="360" height="230">
<rect x="2" y="2" width="360" height="230" rx="15.4011" fill="#16084C"/>
</mask>
<g mask="url(#mask0_2502_549)">
<g filter="url(#filter1_f_2502_549)">
<path d="M454.968 -4.09079C476.084 39.4896 415.359 113.265 319.335 160.692C223.311 208.119 128.35 211.237 107.234 167.656C86.118 124.076 146.843 50.3001 242.867 2.87345C338.891 -44.5532 433.852 -47.6712 454.968 -4.09079Z" fill="white" fill-opacity="0.34"/>
</g>
<g filter="url(#filter2_f_2502_549)">
<path d="M307.64 8.06793C339.193 73.1887 281.26 167.226 178.243 218.107C75.2259 268.987 -33.8648 257.443 -65.4179 192.322C-96.971 127.201 -39.038 33.1639 63.979 -17.7165C166.996 -68.597 276.087 -57.0529 307.64 8.06793Z" fill="#B3131B" fill-opacity="0.38"/>
</g>
</g>
<defs>
<filter id="filter0_b_2502_549" x="-22.1752" y="-22.1752" width="408.35" height="278.35" filterUnits="userSpaceOnUse" color-interpolation-filters="sRGB">
<feFlood flood-opacity="0" result="BackgroundImageFix"/>
<feGaussianBlur in="BackgroundImageFix" stdDeviation="11.4545"/>
<feComposite in2="SourceAlpha" operator="in" result="effect1_backgroundBlur_2502_549"/>
<feBlend mode="normal" in="SourceGraphic" in2="effect1_backgroundBlur_2502_549" result="shape"/>
</filter>
<filter id="filter1_f_2502_549" x="47.2131" y="-90.6698" width="467.776" height="344.905" filterUnits="userSpaceOnUse" color-interpolation-filters="sRGB">
<feFlood flood-opacity="0" result="BackgroundImageFix"/>
<feBlend mode="normal" in="SourceGraphic" in2="BackgroundImageFix" result="shape"/>
<feGaussianBlur stdDeviation="27.9144" result="effect1_foregroundBlur_2502_549"/>
</filter>
<filter id="filter2_f_2502_549" x="-129.852" y="-105.275" width="501.926" height="410.941" filterUnits="userSpaceOnUse" color-interpolation-filters="sRGB">
<feFlood flood-opacity="0" result="BackgroundImageFix"/>
<feBlend mode="normal" in="SourceGraphic" in2="BackgroundImageFix" result="shape"/>
<feGaussianBlur stdDeviation="27.9144" result="effect1_foregroundBlur_2502_549"/>
</filter>
<linearGradient id="paint0_linear_2502_549" x1="2" y1="2" x2="130.405" y2="324.275" gradientUnits="userSpaceOnUse">
<stop stop-color="white" stop-opacity="0.4"/>
<stop offset="1" stop-color="white" stop-opacity="0"/>
</linearGradient>
<radialGradient id="paint1_radial_2502_549" cx="0" cy="0" r="1" gradientUnits="userSpaceOnUse" gradientTransform="translate(2 2) rotate(32.5741) scale(427.2 269.348)">
<stop stop-color="#8E9128" stop-opacity="0.7"/>
<stop offset="0.614583" stop-color="#B691FF" stop-opacity="0.4"/>
<stop offset="1" stop-color="white" stop-opacity="0"/>
</radialGradient>
<linearGradient id="paint2_linear_2502_549" x1="351.951" y1="228.167" x2="316.94" y2="84.1868" gradientUnits="userSpaceOnUse">
<stop stop-color="#ECECEC" stop-opacity="0.32"/>
<stop offset="0.140625" stop-color="#F9FFF5"/>
<stop offset="1" stop-color="white" stop-opacity="0"/>
</linearGradient>
<linearGradient id="paint3_linear_2502_549" x1="357.631" y1="3.74243" x2="323.401" y2="148.648" gradientUnits="userSpaceOnUse">
<stop stop-color="#979A11"/>
<stop offset="1" stop-color="white" stop-opacity="0"/>
</linearGradient>
</defs>
</svg>
