<svg width="364" height="234" viewBox="0 0 364 234" fill="none" xmlns="http://www.w3.org/2000/svg">
<g filter="url(#filter0_b_47_560)">
<rect x="2" y="2" width="360" height="230" rx="15.1928" fill="url(#paint0_linear_47_560)"/>
<rect x="1.36697" y="1.36697" width="361.266" height="231.266" rx="15.8259" stroke="url(#paint1_radial_47_560)" stroke-width="1.26607"/>
<rect x="1.36697" y="1.36697" width="361.266" height="231.266" rx="15.8259" stroke="url(#paint2_linear_47_560)" stroke-opacity="0.4" stroke-width="1.26607"/>
<rect x="1.36697" y="1.36697" width="361.266" height="231.266" rx="15.8259" stroke="url(#paint3_linear_47_560)" stroke-width="1.26607"/>
</g>
<mask id="mask0_47_560" style="mask-type:alpha" maskUnits="userSpaceOnUse" x="2" y="2" width="360" height="230">
<rect x="2" y="2" width="360" height="230" rx="15.4011" fill="#16084C"/>
</mask>
<g mask="url(#mask0_47_560)">
<g filter="url(#filter1_f_47_560)">
<path d="M482.518 -66.5037C504.881 -20.3506 445.166 55.5107 349.142 102.937C253.118 150.364 157.147 151.396 134.784 105.243C112.421 59.0902 172.136 -16.7711 268.16 -64.1977C364.184 -111.624 460.156 -112.657 482.518 -66.5037Z" fill="#E3CD56"/>
</g>
<g filter="url(#filter2_f_47_560)">
<path d="M321.225 -92.4322C343.588 -46.2791 283.873 29.5822 187.849 77.0089C91.8252 124.435 -4.14626 125.468 -26.5089 79.3148C-48.8715 33.1618 10.8429 -42.6996 106.867 -90.1262C202.891 -137.553 298.863 -138.585 321.225 -92.4322Z" fill="#DF6F29"/>
</g>
</g>
<defs>
<filter id="filter0_b_47_560" x="-22.1752" y="-22.1752" width="408.35" height="278.35" filterUnits="userSpaceOnUse" color-interpolation-filters="sRGB">
<feFlood flood-opacity="0" result="BackgroundImageFix"/>
<feGaussianBlur in="BackgroundImageFix" stdDeviation="11.4545"/>
<feComposite in2="SourceAlpha" operator="in" result="effect1_backgroundBlur_47_560"/>
<feBlend mode="normal" in="SourceGraphic" in2="effect1_backgroundBlur_47_560" result="shape"/>
</filter>
<filter id="filter1_f_47_560" x="74.2627" y="-156.283" width="468.777" height="351.306" filterUnits="userSpaceOnUse" color-interpolation-filters="sRGB">
<feFlood flood-opacity="0" result="BackgroundImageFix"/>
<feBlend mode="normal" in="SourceGraphic" in2="BackgroundImageFix" result="shape"/>
<feGaussianBlur stdDeviation="27.9144" result="effect1_foregroundBlur_47_560"/>
</filter>
<filter id="filter2_f_47_560" x="-87.0303" y="-182.212" width="468.777" height="351.306" filterUnits="userSpaceOnUse" color-interpolation-filters="sRGB">
<feFlood flood-opacity="0" result="BackgroundImageFix"/>
<feBlend mode="normal" in="SourceGraphic" in2="BackgroundImageFix" result="shape"/>
<feGaussianBlur stdDeviation="27.9144" result="effect1_foregroundBlur_47_560"/>
</filter>
<linearGradient id="paint0_linear_47_560" x1="2" y1="2" x2="130.405" y2="324.275" gradientUnits="userSpaceOnUse">
<stop stop-color="white" stop-opacity="0.4"/>
<stop offset="1" stop-color="white" stop-opacity="0"/>
</linearGradient>
<radialGradient id="paint1_radial_47_560" cx="0" cy="0" r="1" gradientUnits="userSpaceOnUse" gradientTransform="translate(2 2) rotate(32.5741) scale(427.2 269.348)">
<stop stop-color="white" stop-opacity="0.7"/>
<stop offset="0.677083" stop-color="#B691FF" stop-opacity="0.4"/>
<stop offset="1" stop-color="white" stop-opacity="0"/>
</radialGradient>
<linearGradient id="paint2_linear_47_560" x1="351.951" y1="228.167" x2="316.94" y2="84.1868" gradientUnits="userSpaceOnUse">
<stop stop-color="white" stop-opacity="0.32"/>
<stop offset="0.140625" stop-color="#F9FFF5"/>
<stop offset="1" stop-color="white" stop-opacity="0"/>
</linearGradient>
<linearGradient id="paint3_linear_47_560" x1="357.631" y1="3.74243" x2="323.401" y2="148.648" gradientUnits="userSpaceOnUse">
<stop stop-color="#53555E"/>
<stop offset="1" stop-color="white" stop-opacity="0"/>
</linearGradient>
</defs>
</svg>
