<svg width="364" height="234" viewBox="0 0 364 234" fill="none" xmlns="http://www.w3.org/2000/svg">
<g filter="url(#filter0_b_47_527)">
<rect x="2" y="2" width="360" height="230" rx="15.1928" fill="url(#paint0_linear_47_527)"/>
<rect x="1.36697" y="1.36697" width="361.266" height="231.266" rx="15.8259" stroke="url(#paint1_radial_47_527)" stroke-width="1.26607"/>
<rect x="1.36697" y="1.36697" width="361.266" height="231.266" rx="15.8259" stroke="url(#paint2_linear_47_527)" stroke-opacity="0.4" stroke-width="1.26607"/>
<rect x="1.36697" y="1.36697" width="361.266" height="231.266" rx="15.8259" stroke="url(#paint3_linear_47_527)" stroke-width="1.26607"/>
</g>
<mask id="mask0_47_527" style="mask-type:alpha" maskUnits="userSpaceOnUse" x="2" y="2" width="360" height="230">
<rect x="2" y="2" width="360" height="230" rx="15.4011" fill="#16084C"/>
</mask>
<g mask="url(#mask0_47_527)">
<g filter="url(#filter1_f_47_527)">
<path d="M443.931 -108.501C471.589 -52.5528 397.736 39.4089 278.976 96.9011C160.217 154.393 41.5221 155.645 13.8647 99.6965C-13.7926 43.7482 60.0603 -48.2136 178.82 -105.706C297.579 -163.198 416.274 -164.45 443.931 -108.501Z" fill="#436D99"/>
</g>
<g filter="url(#filter2_f_47_527)">
<path d="M379.145 -150.02C406.802 -94.0721 332.949 -2.11035 214.19 55.3819C95.4299 112.874 -23.2645 114.126 -50.9219 58.1772C-78.5793 2.22888 -4.72632 -89.7329 114.033 -147.225C232.793 -204.717 351.487 -205.969 379.145 -150.02Z" fill="#2D57F2"/>
</g>
</g>
<defs>
<filter id="filter0_b_47_527" x="-22.1752" y="-22.1752" width="408.35" height="278.35" filterUnits="userSpaceOnUse" color-interpolation-filters="sRGB">
<feFlood flood-opacity="0" result="BackgroundImageFix"/>
<feGaussianBlur in="BackgroundImageFix" stdDeviation="11.4545"/>
<feComposite in2="SourceAlpha" operator="in" result="effect1_backgroundBlur_47_527"/>
<feBlend mode="normal" in="SourceGraphic" in2="effect1_backgroundBlur_47_527" result="shape"/>
</filter>
<filter id="filter1_f_47_527" x="-47.7676" y="-205.486" width="553.331" height="402.168" filterUnits="userSpaceOnUse" color-interpolation-filters="sRGB">
<feFlood flood-opacity="0" result="BackgroundImageFix"/>
<feBlend mode="normal" in="SourceGraphic" in2="BackgroundImageFix" result="shape"/>
<feGaussianBlur stdDeviation="27.9144" result="effect1_foregroundBlur_47_527"/>
</filter>
<filter id="filter2_f_47_527" x="-112.554" y="-247.005" width="553.331" height="402.168" filterUnits="userSpaceOnUse" color-interpolation-filters="sRGB">
<feFlood flood-opacity="0" result="BackgroundImageFix"/>
<feBlend mode="normal" in="SourceGraphic" in2="BackgroundImageFix" result="shape"/>
<feGaussianBlur stdDeviation="27.9144" result="effect1_foregroundBlur_47_527"/>
</filter>
<linearGradient id="paint0_linear_47_527" x1="2" y1="2" x2="130.405" y2="324.275" gradientUnits="userSpaceOnUse">
<stop stop-color="white" stop-opacity="0.4"/>
<stop offset="1" stop-color="white" stop-opacity="0"/>
</linearGradient>
<radialGradient id="paint1_radial_47_527" cx="0" cy="0" r="1" gradientUnits="userSpaceOnUse" gradientTransform="translate(2 2) rotate(32.5741) scale(427.2 269.348)">
<stop stop-color="white" stop-opacity="0.7"/>
<stop offset="0.677083" stop-color="#B691FF" stop-opacity="0.4"/>
<stop offset="1" stop-color="white" stop-opacity="0"/>
</radialGradient>
<linearGradient id="paint2_linear_47_527" x1="351.951" y1="228.167" x2="316.94" y2="84.1868" gradientUnits="userSpaceOnUse">
<stop stop-color="white" stop-opacity="0.32"/>
<stop offset="0.140625" stop-color="#F9FFF5"/>
<stop offset="1" stop-color="white" stop-opacity="0"/>
</linearGradient>
<linearGradient id="paint3_linear_47_527" x1="357.631" y1="3.74243" x2="323.401" y2="148.648" gradientUnits="userSpaceOnUse">
<stop stop-color="#53555E"/>
<stop offset="1" stop-color="white" stop-opacity="0"/>
</linearGradient>
</defs>
</svg>
